<?xml version="1.0" encoding="UTF-8"?> <svg xmlns="http://www.w3.org/2000/svg" width="660" height="523" viewBox="0 0 660 523" fill="none"><g clip-path="url(#clip0_2131_25933)"><mask id="mask0_2131_25933" style="mask-type:luminance" maskUnits="userSpaceOnUse" x="0" y="-72" width="667" height="667"><path d="M0 -71.9996H666.667V594.667H0V-71.9996Z" fill="white"></path></mask><g mask="url(#mask0_2131_25933)"><path d="M607.057 301.196C619.069 262.618 624.961 221.951 625.575 182.958C626.223 141.696 621.741 97.0738 594.425 66.1418C567.711 35.8885 524.845 25.5524 484.524 23.7991C468.191 23.0898 451.515 23.5644 436.009 28.7471C404.7 39.2124 382.752 66.9618 354.981 84.8124C301.371 119.274 228.932 115.195 177.392 152.684C164.148 162.318 152.783 174.424 143.408 187.852C105.833 241.67 102.9 316.224 131.575 375.267C160.248 434.308 217.929 477.14 281.665 492.827C345.399 508.511 414.196 498.24 473.248 469.583C542.085 436.176 584.943 372.224 607.057 301.196Z" fill="#0085FF"></path><mask id="mask1_2131_25933" style="mask-type:luminance" maskUnits="userSpaceOnUse" x="112" y="23" width="514" height="478"><path d="M112.338 23.5393H625.632V500.159H112.338V23.5393Z" fill="white"></path></mask><g mask="url(#mask1_2131_25933)"><g opacity="0.699997"><path d="M607.057 301.196C619.069 262.618 624.961 221.951 625.575 182.958C626.223 141.696 621.741 97.0738 594.425 66.1418C567.711 35.8885 524.845 25.5524 484.524 23.7991C468.191 23.0898 451.515 23.5644 436.009 28.7471C404.7 39.2124 382.752 66.9618 354.981 84.8124C301.371 119.274 228.932 115.195 177.392 152.684C164.148 162.318 152.783 174.424 143.408 187.852C105.833 241.67 102.9 316.224 131.575 375.267C160.248 434.308 217.929 477.14 281.665 492.827C345.399 508.511 414.196 498.24 473.248 469.583C542.085 436.176 584.943 372.224 607.057 301.196Z" fill="white"></path></g></g></g><mask id="mask2_2131_25933" style="mask-type:luminance" maskUnits="userSpaceOnUse" x="0" y="-72" width="667" height="667"><path d="M0 -71.9996H666.667V594.667H0V-71.9996Z" fill="white"></path></mask><g mask="url(#mask2_2131_25933)"><path d="M511.964 52.8844V322.911C511.964 330.939 505.457 337.444 497.418 337.444H137.27C135.872 337.444 134.512 337.244 133.23 336.871C127.164 335.124 122.738 329.538 122.738 322.911V52.8844C122.738 44.8444 129.244 38.3377 137.27 38.3377H497.418C505.457 38.3377 511.964 44.8444 511.964 52.8844Z" fill="white"></path><path d="M511.964 61.231V322.911C511.964 330.938 505.457 337.444 497.418 337.444H137.27C135.872 337.444 134.512 337.244 133.23 336.87L511.964 61.231Z" fill="#1A2E35"></path><mask id="mask3_2131_25933" style="mask-type:luminance" maskUnits="userSpaceOnUse" x="133" y="61" width="379" height="277"><path d="M133.23 61.231H511.964V337.444H133.23V61.231Z" fill="white"></path></mask><g mask="url(#mask3_2131_25933)"><g opacity="0.899994"><path d="M511.963 61.231V322.911C511.963 330.938 505.457 337.444 497.418 337.444H137.27C135.871 337.444 134.511 337.244 133.23 336.87L511.963 61.231Z" fill="white"></path></g></g><path d="M357.79 207.404C357.79 229.737 339.684 247.844 317.35 247.844C302.817 247.844 290.07 240.177 282.937 228.657C279.11 222.484 276.91 215.191 276.91 207.404C276.91 185.084 295.017 166.977 317.35 166.977C328.47 166.977 338.538 171.471 345.858 178.724C346.592 179.457 347.297 180.204 347.95 180.991C354.032 188.017 357.737 197.151 357.79 207.151V207.404ZM412.137 207.404L431.752 198.551L427.564 175.084L405.95 173.351C403.23 166.111 399.577 159.244 395.085 152.951L401.872 141.457L406.217 134.084L389.39 117.377L370.538 128.697C359.71 121.231 347.418 116.164 334.47 113.831L329.044 92.2307H305.205L299.617 113.991C292.27 115.457 285.11 117.764 278.27 120.857L261.19 106.137L241.697 119.417L249.804 140.457C244.644 145.804 240.19 151.777 236.524 158.231L214.084 155.964L206.017 178.364L224.564 190.964C223.657 196.217 223.217 201.551 223.244 206.884C223.097 209.084 223.097 211.284 223.244 213.484L203.63 224.497L209.857 247.431H232.004C234.124 252.004 236.617 256.377 239.444 260.551C240.884 262.684 242.417 264.765 244.03 266.777L234.484 286.537L252.777 301.884L270.43 288.657C277.15 292.537 284.31 295.564 291.777 297.671L295.324 319.017L319.084 321.124L326.217 300.991C333.99 300.204 341.657 298.511 349.032 295.937L364.124 311.017L384.79 299.099L379.097 278.537C385.097 273.511 390.444 267.724 395.004 261.351L415.937 265.111L426.017 243.537L409.564 230.271C411.337 222.777 412.205 215.111 412.137 207.404Z" fill="#0085FF"></path><path d="M357.79 207.404C357.79 229.737 339.684 247.844 317.35 247.844C302.817 247.844 290.07 240.177 282.937 228.657C279.11 222.484 276.91 215.191 276.91 207.404C276.91 185.084 295.017 166.977 317.35 166.977C328.47 166.977 338.538 171.471 345.858 178.724C346.592 179.457 347.297 180.204 347.95 180.991C354.032 188.017 357.737 197.151 357.79 207.151V207.404ZM412.137 207.404L431.752 198.551L427.564 175.084L405.95 173.351C403.23 166.111 399.577 159.244 395.085 152.951L401.872 141.457L406.217 134.084L389.39 117.377L370.538 128.697C359.71 121.231 347.418 116.164 334.47 113.831L329.044 92.2307H305.205L299.617 113.991C292.27 115.457 285.11 117.764 278.27 120.857L261.19 106.137L241.697 119.417L249.804 140.457C244.644 145.804 240.19 151.777 236.524 158.231L214.084 155.964L206.017 178.364L224.564 190.964C223.657 196.217 223.217 201.551 223.244 206.884C223.097 209.084 223.097 211.284 223.244 213.484L203.63 224.497L209.857 247.431H232.004C234.124 252.004 236.617 256.377 239.444 260.551C240.884 262.684 242.417 264.765 244.03 266.777L234.484 286.537L252.777 301.884L270.43 288.657C277.15 292.537 284.31 295.564 291.777 297.671L295.324 319.017L319.084 321.124L326.217 300.991C333.99 300.204 341.657 298.511 349.032 295.937L364.124 311.017L384.79 299.099L379.097 278.537C385.097 273.511 390.444 267.724 395.004 261.351L415.937 265.111L426.017 243.537L409.564 230.271C411.337 222.777 412.205 215.111 412.137 207.404Z" stroke="#1A2E35" stroke-width="1.33333" stroke-miterlimit="10"></path><mask id="mask4_2131_25933" style="mask-type:luminance" maskUnits="userSpaceOnUse" x="234" y="141" width="198" height="181"><path d="M234.484 141.458H431.751V321.125H234.484V141.458Z" fill="white"></path></mask><g mask="url(#mask4_2131_25933)"><g opacity="0.199997"><path d="M409.564 230.271L426.017 243.537L415.937 265.111L395.004 261.351C390.444 267.724 385.097 273.511 379.097 278.537L384.791 299.099L364.124 311.017L349.032 295.937C341.657 298.511 333.991 300.204 326.217 300.992L319.084 321.124L295.324 319.017L291.777 297.671C284.311 295.564 277.151 292.537 270.431 288.659L252.777 301.884L234.484 286.537L244.031 266.777C242.417 264.765 240.884 262.684 239.444 260.551L282.937 228.657C290.071 240.177 302.817 247.844 317.351 247.844C339.684 247.844 357.791 229.737 357.791 207.404V207.151C357.737 197.151 354.032 188.017 347.951 180.991L401.871 141.457L395.085 152.951C399.577 159.244 403.231 166.111 405.951 173.351L427.564 175.084L431.752 198.551L412.137 207.404C412.204 215.111 411.337 222.777 409.564 230.271Z" fill="black"></path></g></g><path d="M484.306 145.744C484.306 153.211 478.253 159.264 470.786 159.264C463.319 159.264 457.266 153.211 457.266 145.744C457.266 138.277 463.319 132.224 470.786 132.224C478.221 132.216 484.258 138.229 484.279 145.664L484.306 145.744ZM493.879 145.051L494.866 144.597C496.001 144.099 496.642 142.883 496.413 141.664L496.213 140.464C496.011 139.243 494.995 138.32 493.759 138.237L492.573 138.144C491.614 138.073 490.77 137.492 490.359 136.624C490.039 135.944 489.693 135.291 489.319 134.651C488.842 133.825 488.842 132.809 489.319 131.984L489.933 130.944C490.546 129.875 490.371 128.528 489.506 127.651L488.653 126.797C487.779 125.908 486.406 125.741 485.346 126.397L484.293 127.024C483.467 127.5 482.45 127.5 481.626 127.024C479.925 126.045 478.099 125.3 476.199 124.811C475.25 124.564 474.513 123.816 474.279 122.864L473.973 121.624C473.682 120.395 472.569 119.537 471.306 119.571H470.106C468.846 119.535 467.734 120.385 467.439 121.611L467.106 122.944C466.871 123.876 466.153 124.609 465.226 124.864C464.559 125.051 463.893 125.251 463.266 125.491C462.354 125.824 461.333 125.635 460.599 124.997L459.533 124.077C458.611 123.269 457.259 123.192 456.253 123.891L455.306 124.531C454.254 125.229 453.835 126.571 454.306 127.744L454.786 128.997C455.142 129.895 454.983 130.915 454.373 131.664C453.946 132.172 453.546 132.701 453.173 133.251C452.619 134.06 451.667 134.5 450.693 134.397L449.359 134.277C448.122 134.14 446.955 134.876 446.546 136.051L446.119 137.224C445.694 138.364 446.094 139.648 447.093 140.344L448.319 141.211C449.105 141.763 449.533 142.695 449.441 143.651C449.365 144.345 449.329 145.045 449.334 145.744C449.299 146.676 448.798 147.529 448.001 148.011L446.746 148.704C445.63 149.287 445.074 150.572 445.413 151.784L445.721 152.944C446.031 154.152 447.138 154.984 448.387 154.944H449.721C450.681 154.936 451.571 155.444 452.054 156.277C452.413 156.917 452.799 157.531 453.213 158.131C453.753 158.919 453.83 159.937 453.413 160.797L452.866 161.931C452.313 163.047 452.606 164.397 453.573 165.184L454.493 165.957C455.437 166.767 456.814 166.816 457.813 166.077L458.759 165.411C459.538 164.853 460.557 164.756 461.426 165.157C462.102 165.477 462.794 165.771 463.506 166.037C464.395 166.371 465.042 167.153 465.199 168.091L465.399 169.251C465.602 170.472 466.617 171.395 467.853 171.477L469.079 171.584C470.309 171.699 471.457 170.953 471.853 169.784L472.226 168.744C472.547 167.829 473.337 167.16 474.293 166.997C475.049 166.879 475.795 166.717 476.533 166.517C477.459 166.271 478.446 166.54 479.119 167.224L479.906 168.024C480.763 168.907 482.113 169.088 483.173 168.464L484.226 167.864C485.342 167.28 485.897 165.996 485.559 164.784L485.266 163.744C484.981 162.797 485.242 161.772 485.946 161.077C486.493 160.531 487.026 159.957 487.519 159.357C488.141 158.615 489.115 158.268 490.066 158.451L491.133 158.651C492.349 158.891 493.57 158.26 494.079 157.131L494.586 156.037C495.127 154.909 494.811 153.556 493.826 152.784L493.026 152.131C492.278 151.54 491.901 150.595 492.039 149.651C492.169 148.856 492.254 148.055 492.293 147.251C492.382 146.283 492.99 145.44 493.879 145.051Z" fill="#0085FF"></path><path d="M484.306 145.744C484.306 153.211 478.253 159.264 470.786 159.264C463.319 159.264 457.266 153.211 457.266 145.744C457.266 138.277 463.319 132.224 470.786 132.224C478.221 132.216 484.258 138.229 484.279 145.664L484.306 145.744ZM493.879 145.051L494.866 144.597C496.001 144.099 496.642 142.883 496.413 141.664L496.213 140.464C496.011 139.243 494.995 138.32 493.759 138.237L492.573 138.144C491.614 138.073 490.77 137.492 490.359 136.624C490.039 135.944 489.693 135.291 489.319 134.651C488.842 133.825 488.842 132.809 489.319 131.984L489.933 130.944C490.546 129.875 490.371 128.528 489.506 127.651L488.653 126.797C487.779 125.908 486.406 125.741 485.346 126.397L484.293 127.024C483.467 127.5 482.45 127.5 481.626 127.024C479.925 126.045 478.099 125.3 476.199 124.811C475.25 124.564 474.513 123.816 474.279 122.864L473.973 121.624C473.682 120.395 472.569 119.537 471.306 119.571H470.106C468.846 119.535 467.734 120.385 467.439 121.611L467.106 122.944C466.871 123.876 466.153 124.609 465.226 124.864C464.559 125.051 463.893 125.251 463.266 125.491C462.354 125.824 461.333 125.635 460.599 124.997L459.533 124.077C458.611 123.269 457.259 123.192 456.253 123.891L455.306 124.531C454.254 125.229 453.835 126.571 454.306 127.744L454.786 128.997C455.142 129.895 454.983 130.915 454.373 131.664C453.946 132.172 453.546 132.701 453.173 133.251C452.619 134.06 451.667 134.5 450.693 134.397L449.359 134.277C448.122 134.14 446.955 134.876 446.546 136.051L446.119 137.224C445.694 138.364 446.094 139.648 447.093 140.344L448.319 141.211C449.105 141.763 449.533 142.695 449.441 143.651C449.365 144.345 449.329 145.045 449.334 145.744C449.299 146.676 448.798 147.529 448.001 148.011L446.746 148.704C445.63 149.287 445.074 150.572 445.413 151.784L445.721 152.944C446.031 154.152 447.138 154.984 448.387 154.944H449.721C450.681 154.936 451.571 155.444 452.054 156.277C452.413 156.917 452.799 157.531 453.213 158.131C453.753 158.919 453.83 159.937 453.413 160.797L452.866 161.931C452.313 163.047 452.606 164.397 453.573 165.184L454.493 165.957C455.437 166.767 456.814 166.816 457.813 166.077L458.759 165.411C459.538 164.853 460.557 164.756 461.426 165.157C462.102 165.477 462.794 165.771 463.506 166.037C464.395 166.371 465.042 167.153 465.199 168.091L465.399 169.251C465.602 170.472 466.617 171.395 467.853 171.477L469.079 171.584C470.309 171.699 471.457 170.953 471.853 169.784L472.226 168.744C472.547 167.829 473.337 167.16 474.293 166.997C475.049 166.879 475.795 166.717 476.533 166.517C477.459 166.271 478.446 166.54 479.119 167.224L479.906 168.024C480.763 168.907 482.113 169.088 483.173 168.464L484.226 167.864C485.342 167.28 485.897 165.996 485.559 164.784L485.266 163.744C484.981 162.797 485.242 161.772 485.946 161.077C486.493 160.531 487.026 159.957 487.519 159.357C488.141 158.615 489.115 158.268 490.066 158.451L491.133 158.651C492.349 158.891 493.57 158.26 494.079 157.131L494.586 156.037C495.127 154.909 494.811 153.556 493.826 152.784L493.026 152.131C492.278 151.54 491.901 150.595 492.039 149.651C492.169 148.856 492.254 148.055 492.293 147.251C492.382 146.283 492.99 145.44 493.879 145.051Z" stroke="#1A2E35" stroke-width="1.33333" stroke-miterlimit="10"></path><path d="M511.967 52.8868V53.6201H122.741V52.8868C122.741 44.8468 129.247 38.3401 137.274 38.3401H497.421C505.461 38.3401 511.967 44.8468 511.967 52.8868Z" fill="#1A2E35"></path><path d="M511.967 52.8873V322.914C511.967 330.941 505.461 337.447 497.421 337.447H137.274C129.247 337.447 122.741 330.941 122.741 322.914V52.8873C122.741 44.8473 129.247 38.3406 137.274 38.3406H497.421C505.461 38.3406 511.967 44.8473 511.967 52.8873Z" stroke="#1A2E35" stroke-width="1.33333" stroke-miterlimit="10" stroke-linecap="round" stroke-linejoin="round"></path><path d="M122.741 52.8877H511.968" stroke="#1A2E35" stroke-width="1.33333" stroke-miterlimit="10" stroke-linecap="round" stroke-linejoin="round"></path><path d="M155.191 45.9804C155.191 47.6097 153.871 48.9297 152.241 48.9297C150.612 48.9297 149.292 47.6097 149.292 45.9804C149.292 44.351 150.612 43.031 152.241 43.031C153.871 43.031 155.191 44.351 155.191 45.9804Z" fill="#0085FF"></path><path d="M169.165 45.9804C169.165 47.6097 167.845 48.9297 166.215 48.9297C164.586 48.9297 163.266 47.6097 163.266 45.9804C163.266 44.351 164.586 43.031 166.215 43.031C167.845 43.031 169.165 44.351 169.165 45.9804Z" fill="#0085FF"></path><path d="M183.139 45.9804C183.139 47.6097 181.819 48.9297 180.19 48.9297C178.56 48.9297 177.24 47.6097 177.24 45.9804C177.24 44.351 178.56 43.031 180.19 43.031C181.819 43.031 183.139 44.351 183.139 45.9804Z" fill="#0085FF"></path><path d="M379.518 207.41C379.518 241.557 351.837 269.238 317.69 269.238C283.544 269.238 255.862 241.557 255.862 207.41C255.862 173.264 283.544 145.582 317.69 145.582C351.685 145.581 379.304 173.025 379.518 207.018V207.41Z" stroke="#1A2E35" stroke-width="5.33333" stroke-miterlimit="10"></path></g><mask id="mask5_2131_25933" style="mask-type:luminance" maskUnits="userSpaceOnUse" x="0" y="-72" width="667" height="667"><path d="M0 -71.9996H666.667V594.667H0V-71.9996Z" fill="white"></path></mask><g mask="url(#mask5_2131_25933)"><path d="M609.005 145.954H388.96C380.929 145.954 374.421 139.445 374.421 131.415V82.5714C374.421 74.5434 380.929 68.0341 388.96 68.0341H609.005C617.033 68.0341 623.542 74.5434 623.542 82.5714V131.415C623.542 139.445 617.033 145.954 609.005 145.954Z" fill="white"></path><path d="M609.005 145.954H388.96C380.929 145.954 374.421 139.445 374.421 131.415V82.5714C374.421 74.5434 380.929 68.0341 388.96 68.0341H609.005C617.033 68.0341 623.542 74.5434 623.542 82.5714V131.415C623.542 139.445 617.033 145.954 609.005 145.954Z" stroke="#1A2E35" stroke-width="1.33333" stroke-miterlimit="10"></path><path d="M418.026 106.643H587.799" stroke="#1A2E35" stroke-width="1.33333" stroke-miterlimit="10"></path><path d="M412.734 106.643L439.546 87.7439H507.826L535.69 106.643" stroke="#1A2E35" stroke-width="1.33333" stroke-miterlimit="10"></path><path d="M540.981 106.643C540.981 109.565 538.612 111.935 535.689 111.935C532.767 111.935 530.397 109.565 530.397 106.643C530.397 103.72 532.767 101.351 535.689 101.351C538.612 101.351 540.981 103.72 540.981 106.643Z" fill="#FFE363"></path><path d="M540.981 106.643C540.981 109.565 538.612 111.935 535.689 111.935C532.767 111.935 530.397 109.565 530.397 106.643C530.397 103.72 532.767 101.351 535.689 101.351C538.612 101.351 540.981 103.72 540.981 106.643Z" stroke="#1A2E35" stroke-width="1.33333" stroke-miterlimit="10"></path><path d="M444.838 87.7441C444.838 90.6668 442.469 93.0361 439.546 93.0361C436.624 93.0361 434.254 90.6668 434.254 87.7441C434.254 84.8215 436.624 82.4521 439.546 82.4521C442.469 82.4521 444.838 84.8215 444.838 87.7441Z" fill="#FFE363"></path><path d="M444.838 87.7441C444.838 90.6668 442.469 93.0361 439.546 93.0361C436.624 93.0361 434.254 90.6668 434.254 87.7441C434.254 84.8215 436.624 82.4521 439.546 82.4521C442.469 82.4521 444.838 84.8215 444.838 87.7441Z" stroke="#1A2E35" stroke-width="1.33333" stroke-miterlimit="10"></path><path d="M513.118 87.7441C513.118 90.6668 510.75 93.0361 507.826 93.0361C504.904 93.0361 502.536 90.6668 502.536 87.7441C502.536 84.8215 504.904 82.4521 507.826 82.4521C510.75 82.4521 513.118 84.8215 513.118 87.7441Z" fill="#0085FF"></path><path d="M513.118 87.7441C513.118 90.6668 510.75 93.0361 507.826 93.0361C504.904 93.0361 502.536 90.6668 502.536 87.7441C502.536 84.8215 504.904 82.4521 507.826 82.4521C510.75 82.4521 513.118 84.8215 513.118 87.7441Z" stroke="#1A2E35" stroke-width="1.33333" stroke-miterlimit="10"></path><path d="M412.734 106.643L439.546 125.54H565.397L587.8 106.643" stroke="#1A2E35" stroke-width="1.33333" stroke-miterlimit="10"></path><path d="M485.836 125.541C485.836 128.464 483.467 130.833 480.544 130.833C477.621 130.833 475.252 128.464 475.252 125.541C475.252 122.618 477.621 120.249 480.544 120.249C483.467 120.249 485.836 122.618 485.836 125.541Z" fill="#FFE363"></path><path d="M485.836 125.541C485.836 128.464 483.467 130.833 480.544 130.833C477.621 130.833 475.252 128.464 475.252 125.541C475.252 122.618 477.621 120.249 480.544 120.249C483.467 120.249 485.836 122.618 485.836 125.541Z" stroke="#1A2E35" stroke-width="1.33333" stroke-miterlimit="10"></path><path d="M444.838 125.541C444.838 128.464 442.469 130.833 439.546 130.833C436.624 130.833 434.254 128.464 434.254 125.541C434.254 122.618 436.624 120.249 439.546 120.249C442.469 120.249 444.838 122.618 444.838 125.541Z" fill="#0085FF"></path><path d="M444.838 125.541C444.838 128.464 442.469 130.833 439.546 130.833C436.624 130.833 434.254 128.464 434.254 125.541C434.254 122.618 436.624 120.249 439.546 120.249C442.469 120.249 444.838 122.618 444.838 125.541Z" stroke="#1A2E35" stroke-width="1.33333" stroke-miterlimit="10"></path><path d="M570.69 125.541C570.69 128.464 568.321 130.833 565.397 130.833C562.475 130.833 560.106 128.464 560.106 125.541C560.106 122.618 562.475 120.249 565.397 120.249C568.321 120.249 570.69 122.618 570.69 125.541Z" fill="#FFE363"></path><path d="M570.69 125.541C570.69 128.464 568.321 130.833 565.397 130.833C562.475 130.833 560.106 128.464 560.106 125.541C560.106 122.618 562.475 120.249 565.397 120.249C568.321 120.249 570.69 122.618 570.69 125.541Z" stroke="#1A2E35" stroke-width="1.33333" stroke-miterlimit="10"></path><path d="M593.092 106.643C593.092 109.565 590.723 111.935 587.799 111.935C584.878 111.935 582.508 109.565 582.508 106.643C582.508 103.72 584.878 101.351 587.799 101.351C590.723 101.351 593.092 103.72 593.092 106.643Z" fill="#0085FF"></path><path d="M593.092 106.643C593.092 109.565 590.723 111.935 587.799 111.935C584.878 111.935 582.508 109.565 582.508 106.643C582.508 103.72 584.878 101.351 587.799 101.351C590.723 101.351 593.092 103.72 593.092 106.643Z" stroke="#1A2E35" stroke-width="1.33333" stroke-miterlimit="10"></path><path d="M418.026 106.643C418.026 109.565 415.658 111.935 412.734 111.935C409.811 111.935 407.443 109.565 407.443 106.643C407.443 103.72 409.811 101.351 412.734 101.351C415.658 101.351 418.026 103.72 418.026 106.643Z" fill="#0085FF"></path><path d="M418.026 106.643C418.026 109.565 415.658 111.935 412.734 111.935C409.811 111.935 407.443 109.565 407.443 106.643C407.443 103.72 409.811 101.351 412.734 101.351C415.658 101.351 418.026 103.72 418.026 106.643Z" stroke="#1A2E35" stroke-width="1.33333" stroke-miterlimit="10"></path><path d="M258.313 387.991H131.549C123.52 387.991 117.01 381.482 117.01 373.454V246.69C117.01 238.661 123.52 232.153 131.549 232.153H258.313C266.342 232.153 272.85 238.661 272.85 246.69V373.454C272.85 381.482 266.342 387.991 258.313 387.991Z" fill="white"></path><path d="M258.313 387.991H131.549C123.52 387.991 117.01 381.482 117.01 373.454V246.69C117.01 238.661 123.52 232.153 131.549 232.153H258.313C266.342 232.153 272.85 238.661 272.85 246.69V373.454C272.85 381.482 266.342 387.991 258.313 387.991Z" stroke="#1A2E35" stroke-width="1.33333" stroke-miterlimit="10"></path><path d="M175.45 321.126L155.265 360.354H246.75" stroke="#1A2E35" stroke-width="1.33333" stroke-miterlimit="10" stroke-linecap="round" stroke-linejoin="round"></path><path d="M246.75 261.849L204.054 290.232L246.75 303.077" stroke="#1A2E35" stroke-width="1.33333" stroke-miterlimit="10" stroke-linecap="round" stroke-linejoin="round"></path><path d="M256.842 271.943H236.656V251.755H256.842V271.943Z" fill="#FFE363" stroke="#1A2E35" stroke-width="1.33333" stroke-miterlimit="10"></path><path d="M256.842 313.171H236.656V292.983H256.842V313.171Z" fill="#FFE363" stroke="#1A2E35" stroke-width="1.33333" stroke-miterlimit="10"></path><path d="M214.148 300.325H193.961V280.137H214.148V300.325Z" fill="#FFE363" stroke="#1A2E35" stroke-width="1.33333" stroke-miterlimit="10"></path><path d="M185.544 331.219H165.357V311.032H185.544V331.219Z" fill="#FFE363" stroke="#1A2E35" stroke-width="1.33333" stroke-miterlimit="10"></path><path d="M165.36 370.445H145.173V350.259H165.36V370.445Z" fill="#FFE363" stroke="#1A2E35" stroke-width="1.33333" stroke-miterlimit="10"></path><path d="M256.842 370.445H236.656V350.259H256.842V370.445Z" fill="#FFE363" stroke="#1A2E35" stroke-width="1.33333" stroke-miterlimit="10"></path><path d="M184.425 326.913H57.6622C49.6329 326.913 43.1235 320.404 43.1235 312.376V185.612C43.1235 177.582 49.6329 171.074 57.6622 171.074H184.425C192.454 171.074 198.964 177.582 198.964 185.612V312.376C198.964 320.404 192.454 326.913 184.425 326.913Z" fill="white"></path><path d="M184.425 326.913H57.6622C49.6329 326.913 43.1235 320.404 43.1235 312.376V185.612C43.1235 177.582 49.6329 171.074 57.6622 171.074H184.425C192.454 171.074 198.964 177.582 198.964 185.612V312.376C198.964 320.404 192.454 326.913 184.425 326.913Z" stroke="#1A2E35" stroke-width="1.33333" stroke-miterlimit="10"></path><path d="M163.265 194.186H59.6011V186.154H163.265V194.186Z" fill="#0085FF"></path><path d="M119.492 207.405H59.6025V199.373H119.492V207.405Z" fill="#0085FF"></path><path d="M94.4877 220.627H59.6011V212.595H94.4877V220.627Z" fill="#0085FF"></path><path d="M117.01 233.847H59.6011V225.815H117.01V233.847Z" fill="#0085FF"></path><path d="M149.095 247.067H59.6025V239.035H149.095V247.067Z" fill="#0085FF"></path><path d="M119.492 260.288H59.6025V252.256H119.492V260.288Z" fill="#0085FF"></path><path d="M101.385 273.508H59.6025V265.477H101.385V273.508Z" fill="#0085FF"></path><path d="M127.252 286.729H59.6025V278.697H127.252V286.729Z" fill="#0085FF"></path><path d="M141.621 299.949H59.6011V291.919H141.621V299.949Z" fill="#0085FF"></path><path d="M163.265 313.171H59.6011V305.139H163.265V313.171Z" fill="#0085FF"></path><mask id="mask6_2131_25933" style="mask-type:luminance" maskUnits="userSpaceOnUse" x="59" y="186" width="105" height="9"><path d="M59.6021 186.154H163.265V194.186H59.6021V186.154Z" fill="white"></path></mask><g mask="url(#mask6_2131_25933)"><g opacity="0.300003"><path d="M163.265 194.186H59.6011V186.154H163.265V194.186Z" fill="black"></path></g></g><mask id="mask7_2131_25933" style="mask-type:luminance" maskUnits="userSpaceOnUse" x="59" y="199" width="61" height="9"><path d="M59.6021 199.373H119.492V207.405H59.6021V199.373Z" fill="white"></path></mask><g mask="url(#mask7_2131_25933)"><g opacity="0.300003"><path d="M119.492 207.405H59.6025V199.373H119.492V207.405Z" fill="black"></path></g></g><mask id="mask8_2131_25933" style="mask-type:luminance" maskUnits="userSpaceOnUse" x="59" y="212" width="36" height="9"><path d="M59.6021 212.595H94.4876V220.627H59.6021V212.595Z" fill="white"></path></mask><g mask="url(#mask8_2131_25933)"><g opacity="0.300003"><path d="M94.4877 220.627H59.6011V212.595H94.4877V220.627Z" fill="black"></path></g></g><mask id="mask9_2131_25933" style="mask-type:luminance" maskUnits="userSpaceOnUse" x="59" y="225" width="59" height="9"><path d="M59.6021 225.815H117.011V233.847H59.6021V225.815Z" fill="white"></path></mask><g mask="url(#mask9_2131_25933)"><g opacity="0.300003"><path d="M117.01 233.847H59.6011V225.815H117.01V233.847Z" fill="black"></path></g></g><mask id="mask10_2131_25933" style="mask-type:luminance" maskUnits="userSpaceOnUse" x="59" y="239" width="91" height="9"><path d="M59.6021 239.035H149.094V247.068H59.6021V239.035Z" fill="white"></path></mask><g mask="url(#mask10_2131_25933)"><g opacity="0.300003"><path d="M149.095 247.067H59.6025V239.035H149.095V247.067Z" fill="black"></path></g></g><mask id="mask11_2131_25933" style="mask-type:luminance" maskUnits="userSpaceOnUse" x="59" y="252" width="61" height="9"><path d="M59.6021 252.256H119.492V260.288H59.6021V252.256Z" fill="white"></path></mask><g mask="url(#mask11_2131_25933)"><g opacity="0.300003"><path d="M119.492 260.288H59.6025V252.256H119.492V260.288Z" fill="black"></path></g></g><mask id="mask12_2131_25933" style="mask-type:luminance" maskUnits="userSpaceOnUse" x="59" y="265" width="43" height="9"><path d="M59.6021 265.476H101.385V273.508H59.6021V265.476Z" fill="white"></path></mask><g mask="url(#mask12_2131_25933)"><g opacity="0.300003"><path d="M101.385 273.508H59.6025V265.477H101.385V273.508Z" fill="black"></path></g></g><mask id="mask13_2131_25933" style="mask-type:luminance" maskUnits="userSpaceOnUse" x="59" y="278" width="69" height="9"><path d="M59.6021 278.697H127.252V286.729H59.6021V278.697Z" fill="white"></path></mask><g mask="url(#mask13_2131_25933)"><g opacity="0.300003"><path d="M127.252 286.729H59.6025V278.697H127.252V286.729Z" fill="black"></path></g></g><mask id="mask14_2131_25933" style="mask-type:luminance" maskUnits="userSpaceOnUse" x="59" y="291" width="83" height="9"><path d="M59.6021 291.917H141.622V299.949H59.6021V291.917Z" fill="white"></path></mask><g mask="url(#mask14_2131_25933)"><g opacity="0.300003"><path d="M141.621 299.949H59.6011V291.919H141.621V299.949Z" fill="black"></path></g></g><mask id="mask15_2131_25933" style="mask-type:luminance" maskUnits="userSpaceOnUse" x="59" y="305" width="105" height="9"><path d="M59.6021 305.139H163.265V313.171H59.6021V305.139Z" fill="white"></path></mask><g mask="url(#mask15_2131_25933)"><g opacity="0.300003"><path d="M163.265 313.171H59.6011V305.139H163.265V313.171Z" fill="black"></path></g></g><path d="M164.084 157.377H126.361C122.566 157.377 119.492 160.452 119.492 164.245V171.073H170.952V164.245C170.952 160.452 167.877 157.377 164.084 157.377Z" fill="white"></path><path d="M164.084 157.377H126.361C122.566 157.377 119.492 160.452 119.492 164.245V171.073H170.952V164.245C170.952 160.452 167.877 157.377 164.084 157.377Z" stroke="#1A2E35" stroke-width="1.33333" stroke-miterlimit="10"></path><path d="M138.129 157.377H100.856C96.9369 157.377 93.7622 160.553 93.7622 164.471V171.073H145.222V164.471C145.222 160.553 142.046 157.377 138.129 157.377Z" fill="#0085FF"></path><path d="M138.129 157.377H100.856C96.9369 157.377 93.7622 160.553 93.7622 164.471V171.073H145.222V164.471C145.222 160.553 142.046 157.377 138.129 157.377Z" stroke="#1A2E35" stroke-width="1.33333" stroke-miterlimit="10"></path><path d="M110.372 157.377H72.1895C68.5228 157.377 65.5508 160.349 65.5508 164.016V171.073H117.011V164.016C117.011 160.349 114.039 157.377 110.372 157.377Z" fill="white"></path><path d="M110.372 157.377H72.1895C68.5228 157.377 65.5508 160.349 65.5508 164.016V171.073H117.011V164.016C117.011 160.349 114.039 157.377 110.372 157.377Z" stroke="#1A2E35" stroke-width="1.33333" stroke-miterlimit="10"></path></g><path d="M557.692 443.077H586.019" stroke="#1A2E35" stroke-width="1.33333" stroke-miterlimit="10" stroke-linecap="round" stroke-linejoin="round"></path><path d="M111.434 443.077H542.783" stroke="#1A2E35" stroke-width="1.33333" stroke-miterlimit="10" stroke-linecap="round" stroke-linejoin="round"></path><path d="M549.91 426.481C549.91 426.481 554.935 422.375 557.322 426.865C559.387 430.747 554.443 435.087 548.815 435.082V438.362C548.815 438.362 560.882 438.683 561.819 428.521C562.758 418.359 549.91 421.166 549.91 421.166V426.481Z" fill="#0085FF"></path><path d="M549.91 426.481C549.91 426.481 554.935 422.375 557.322 426.865C559.387 430.747 554.443 435.087 548.815 435.082V438.362C548.815 438.362 560.882 438.683 561.819 428.521C562.758 418.359 549.91 421.166 549.91 421.166V426.481Z" stroke="#1A2E35" stroke-width="1.33333" stroke-linecap="round" stroke-linejoin="round"></path><path d="M549.498 443.015H525.329L521.705 412.664H553.133L549.498 443.015Z" fill="#0085FF"></path><path d="M549.498 443.015H525.329L521.705 412.664H553.133L549.498 443.015Z" stroke="#1A2E35" stroke-width="1.33333" stroke-linecap="round" stroke-linejoin="round"></path><path d="M521.751 411.213H553.077C553.991 411.213 554.733 411.955 554.733 412.869V413.027C554.733 413.942 553.991 414.685 553.077 414.685H521.751C520.837 414.685 520.097 413.942 520.097 413.027V412.869C520.097 411.955 520.837 411.213 521.751 411.213Z" fill="white"></path><path d="M521.751 411.213H553.077C553.991 411.213 554.733 411.955 554.733 412.869V413.027C554.733 413.942 553.991 414.685 553.077 414.685H521.751C520.837 414.685 520.097 413.942 520.097 413.027V412.869C520.097 411.955 520.837 411.213 521.751 411.213Z" stroke="#1A2E35" stroke-width="1.33333" stroke-linecap="round" stroke-linejoin="round"></path><path d="M533.306 407.905C533.306 407.905 544.426 401.239 540.8 393.585C537.173 385.932 524.906 380.892 524.906 368.985C524.906 358.732 535.813 354.932 542.934 350.825" stroke="#1A2E35" stroke-width="1.33333" stroke-linecap="round" stroke-linejoin="round"></path><path d="M536.966 358.074C534.075 360.036 532.011 363.176 531.358 366.606C530.705 370.038 531.469 373.717 533.437 376.604" stroke="#1A2E35" stroke-width="1.33333" stroke-linecap="round" stroke-linejoin="round"></path><path d="M543.017 388.327C545.22 392.53 545.845 397.536 544.744 402.152" stroke="#1A2E35" stroke-width="1.33333" stroke-linecap="round" stroke-linejoin="round"></path><path d="M245.31 440.562C245.31 440.562 244.803 431.855 237.123 428.788C229.443 425.722 225.336 426.988 208.19 431.602C197.384 434.427 186.318 436.144 175.163 436.722V440.562H245.31Z" fill="white"></path><path d="M245.31 440.562C245.31 440.562 244.803 431.855 237.123 428.788C229.443 425.722 225.336 426.988 208.19 431.602C197.384 434.427 186.318 436.144 175.163 436.722V440.562H245.31Z" stroke="#1A2E35" stroke-width="1.33333" stroke-linecap="round" stroke-linejoin="round"></path><path d="M245.03 440.562C245.03 440.562 245.536 431.855 253.216 428.788C260.896 425.722 264.99 426.988 282.15 431.602C292.951 434.427 304.012 436.144 315.163 436.722V440.562H245.03Z" fill="white"></path><path d="M245.03 440.562C245.03 440.562 245.536 431.855 253.216 428.788C260.896 425.722 264.99 426.988 282.15 431.602C292.951 434.427 304.012 436.144 315.163 436.722V440.562H245.03Z" stroke="#1A2E35" stroke-width="1.33333" stroke-linecap="round" stroke-linejoin="round"></path><path d="M173.376 439.028H318.016V441.842H173.376V439.028Z" fill="#1A2E35" stroke="#1A2E35" stroke-width="1.33333" stroke-linecap="round" stroke-linejoin="round"></path><path d="M248.766 440.405C250.118 436.303 253.303 432.843 257.28 431.156" stroke="#1A2E35" stroke-width="1.33333" stroke-linecap="round" stroke-linejoin="round"></path><path d="M253.144 439.793C255.152 436.26 258.771 433.685 262.767 432.946C267.553 432.062 272.417 433.71 276.927 435.54C281.436 437.37 289.272 439.778 294.139 439.793" stroke="#1A2E35" stroke-width="1.33333" stroke-linecap="round" stroke-linejoin="round"></path><path d="M203.057 438.992C207.841 438.484 212.551 437.303 217.009 435.495C219.759 434.379 222.431 433.02 225.315 432.318C228.199 431.616 231.411 431.643 233.946 433.187C235.106 433.894 236.069 434.883 236.914 435.946C238.057 437.382 239.003 438.974 239.723 440.663" stroke="#1A2E35" stroke-width="1.33333" stroke-linecap="round" stroke-linejoin="round"></path><path d="M229.508 435.079C231.066 435.242 232.481 436.121 233.58 437.238C234.678 438.357 235.504 439.709 236.318 441.049" stroke="#1A2E35" stroke-width="1.33333" stroke-linecap="round" stroke-linejoin="round"></path><path d="M354.865 439.171C354.865 439.171 346.946 443.078 337.994 443.078C329.042 443.078 310.789 424.558 310.789 424.558C310.789 424.558 310.127 422.556 311.551 415.099C312.975 407.643 326.363 339.175 326.363 339.175C326.363 339.175 327.947 323.246 337.001 313.464C346.055 303.684 363.823 300.206 363.823 300.206C363.823 300.206 403.133 283.086 425.173 288.372C447.246 297.127 471.249 306.008 479.282 312.896C487.313 319.784 507.054 375.044 513.891 403.463C513.891 403.463 498.823 435.472 484.778 444.47C470.73 453.467 436.791 450.527 436.791 450.527L354.865 439.171Z" fill="#0085FF"></path><mask id="mask16_2131_25933" style="mask-type:luminance" maskUnits="userSpaceOnUse" x="310" y="308" width="46" height="136"><path d="M310.604 308.083H355.563V443.128H310.604V308.083Z" fill="white"></path></mask><g mask="url(#mask16_2131_25933)"><g opacity="0.300003"><path d="M349.876 383.534L344.196 308.083C344.196 308.083 332.264 312.198 329.313 325.686C326.363 339.174 308.611 422.243 310.788 424.558C312.965 426.871 324.585 436.791 324.585 436.791C324.585 436.791 337.081 447.479 349.876 441.094C362.669 434.71 349.876 383.534 349.876 383.534Z" fill="black"></path></g></g><mask id="mask17_2131_25933" style="mask-type:luminance" maskUnits="userSpaceOnUse" x="310" y="293" width="97" height="151"><path d="M310.143 293.219H406.301V443.562H310.143V293.219Z" fill="white"></path></mask><g mask="url(#mask17_2131_25933)"><g opacity="0.300003"><path d="M406.302 315.072C405.637 317.329 402.806 318.048 400.453 318.083C393.749 318.176 387.04 315.728 381.97 311.337C381.03 310.524 364.36 320.82 362.438 321.852C359.416 323.475 356.445 325.272 353.364 326.779C350.482 328.189 347.769 328.891 345.886 331.749C344.546 333.784 343.818 336.153 343.106 338.485C339.068 351.719 334.8 364.921 331.124 378.252C327.941 389.784 323.648 402.567 323.83 414.673C323.844 415.54 323.876 416.405 324.016 417.261C326.553 432.74 354.865 439.171 354.865 439.171C354.865 439.171 344.862 445.296 337.994 443.077C331.128 440.859 315.182 431.697 310.144 423.137L324.016 350.545C324.016 350.545 323.844 315.617 349.045 305.176C374.245 294.736 384.152 293.219 384.152 293.219L406.302 315.072Z" fill="black"></path></g></g><mask id="mask18_2131_25933" style="mask-type:luminance" maskUnits="userSpaceOnUse" x="466" y="310" width="48" height="139"><path d="M466.495 310.071H513.891V448.659H466.495V310.071Z" fill="white"></path></mask><g mask="url(#mask18_2131_25933)"><g opacity="0.300003"><path d="M499.323 429.176C499.323 429.176 510.327 417.011 513.891 403.463C513.891 403.463 497.011 347.846 492.67 337.446C488.33 327.046 481.218 315.148 476.246 310.072L468.188 424.558L466.495 448.643C466.495 448.643 475.514 449.028 481.848 446.052C488.183 443.078 499.323 429.176 499.323 429.176Z" fill="black"></path></g></g><path d="M466.495 448.642L476.245 310.071C476.245 310.071 429.028 288.003 416.712 285.948C404.395 283.896 344.347 307.504 344.347 307.504L353.072 440.431" stroke="#1A2E35" stroke-width="1.33333" stroke-miterlimit="10" stroke-linecap="round" stroke-linejoin="round"></path><path d="M381.37 218.27L376.516 241.523C376.516 241.523 370.306 237.135 368.984 242.097C367.664 247.057 371.708 253.879 379.518 254.257C379.518 254.257 381.644 264.785 388.558 271.942C395.471 279.101 398.882 281.838 398.882 281.838C398.882 281.838 401.61 299.494 410.523 300.166C419.438 300.838 421.187 292.805 422.991 281.647C422.991 281.647 430.695 268.275 432.944 261.049C432.944 261.049 442.404 254.454 436.094 244.823C436.094 244.823 439.219 221.815 433.791 217.922C428.363 214.03 390.836 216.038 381.37 218.27Z" fill="white"></path><path d="M410.167 302.011C410.167 302.011 407.165 317.088 405.307 317.473C403.448 317.859 396.06 310.804 389.609 302.011C383.159 293.219 384.151 293.219 384.151 293.219C384.151 293.219 387.143 281.688 389.609 280.004C392.077 278.32 400.936 278.537 400.936 278.537L420.373 277.793C420.373 277.793 426.901 276.869 430.844 279.445C434.788 282.023 436.792 293.219 436.792 293.219C436.792 293.219 425.179 314.707 415.636 317.473C415.636 317.473 412.653 310.628 410.167 302.011Z" fill="white"></path><path d="M346.477 415.231L349.045 379.067" stroke="#1A2E35" stroke-width="1.33333" stroke-miterlimit="10"></path><path d="M436.791 224.95C436.791 224.95 425.762 229.225 416.006 228.402C416.006 228.402 405.702 238.782 392.518 232.61C392.518 232.61 380.625 264.817 407.89 285.881C407.89 285.881 386.005 278.83 379.518 254.257C379.518 254.257 371.769 255.469 368.985 243.866C368.985 243.866 366.743 239.402 376.966 239.372L376.517 216.966L402.783 222.232L421.629 219.481L436.791 224.95Z" fill="#0085FF"></path><mask id="mask19_2131_25933" style="mask-type:luminance" maskUnits="userSpaceOnUse" x="368" y="216" width="69" height="70"><path d="M368.777 216.965H436.791V285.3H368.777V216.965Z" fill="white"></path></mask><g mask="url(#mask19_2131_25933)"><g opacity="0.399994"><path d="M436.792 224.949C436.792 224.949 425.762 229.224 416.006 228.401C416.006 228.401 405.702 238.781 392.518 232.609C392.518 232.609 382.91 267.088 406.776 285.299C406.776 285.299 385.14 277.792 379.518 254.256C379.518 254.256 371.82 253.437 368.985 243.865C368.985 243.865 366.744 239.401 376.966 239.371L376.517 216.965L402.784 222.231L421.629 219.48L436.792 224.949Z" fill="white"></path></g></g><path d="M406.776 269.584C407.636 270.274 408.535 270.914 409.469 271.502C410.077 271.885 410.992 272.2 411.424 271.634C411.592 271.416 411.619 271.125 411.636 270.853C412.027 264.49 410.545 258.069 411.452 251.756" stroke="#1A2E35" stroke-width="1.33333" stroke-miterlimit="10" stroke-linecap="round" stroke-linejoin="round"></path><path d="M415.624 248.142C415.624 248.142 418.784 241.17 426.936 247.434" stroke="#1A2E35" stroke-width="2.66667" stroke-miterlimit="10" stroke-linecap="round" stroke-linejoin="round"></path><path d="M405.383 249.433C405.383 249.433 399.427 242.018 392.036 249.662" stroke="#1A2E35" stroke-width="2.66667" stroke-miterlimit="10" stroke-linecap="round" stroke-linejoin="round"></path><path d="M397.337 280.731C397.337 280.731 400.513 299.739 411.702 300.315C420.782 300.782 422.558 285.07 422.906 279.446" stroke="#1A2E35" stroke-width="1.33333" stroke-miterlimit="10" stroke-linecap="round" stroke-linejoin="round"></path><path d="M378.056 243.643C378.056 243.643 373.119 237.751 369.775 240.63C366.429 243.508 371.441 256.18 379.519 254.256" stroke="#1A2E35" stroke-width="1.33333" stroke-miterlimit="10" stroke-linecap="round" stroke-linejoin="round"></path><path d="M399.408 271.943C399.408 271.943 402.746 276.413 408.896 277.794" stroke="#1A2E35" stroke-width="1.33333" stroke-miterlimit="10" stroke-linecap="round" stroke-linejoin="round"></path><path d="M400.163 258.19C400.163 259.692 399.589 260.911 398.881 260.911C398.175 260.911 397.6 259.692 397.6 258.19C397.6 256.687 398.175 255.468 398.881 255.468C399.589 255.468 400.163 256.687 400.163 258.19Z" fill="#1A2E35"></path><path d="M420.95 258.19C420.95 259.692 420.376 260.911 419.669 260.911C418.961 260.911 418.386 259.692 418.386 258.19C418.386 256.687 418.961 255.468 419.669 255.468C420.376 255.468 420.95 256.687 420.95 258.19Z" fill="#1A2E35"></path><path d="M410.523 300.167C410.523 300.167 407.41 317.089 405.307 317.472C403.203 317.856 387.283 303.388 384.151 293.219C384.151 293.219 387.526 279.928 390.586 279.445C392.055 279.213 393.731 278.995 395.078 278.829" stroke="#1A2E35" stroke-width="1.33333" stroke-miterlimit="10" stroke-linecap="round" stroke-linejoin="round"></path><path d="M410.523 300.167C410.523 300.167 413.531 317.089 415.635 317.472C417.739 317.856 433.659 303.388 436.791 293.219C436.791 293.219 432.986 280.024 430.093 278.915C427.171 277.793 424.421 277.297 424.421 277.297" stroke="#1A2E35" stroke-width="1.33333" stroke-miterlimit="10" stroke-linecap="round" stroke-linejoin="round"></path><path d="M381.041 258.526C383.085 262.064 385.629 249.564 384.551 245.623C383.829 242.99 382.411 240.508 382.289 237.78C382.153 234.748 383.629 231.918 384.699 229.078C385.769 226.238 386.395 222.854 384.729 220.318C390.549 224.57 397.513 226.85 404.692 227.49C406.529 227.654 408.432 227.682 410.161 227.039C411.891 226.396 413.425 224.959 413.719 223.138C420.443 223.995 427.116 224.875 433.833 223.962C439.46 223.196 448.215 221.771 451.112 216.024C455.347 207.623 444.432 198.906 437.999 195.97C422.403 188.855 401.452 187.655 387.404 198.815C385.913 200 384.504 201.302 382.889 202.312C379.787 204.256 372.736 205.762 370.268 208.467C366.951 212.106 371.113 240.214 371.113 240.214C371.113 240.214 376.516 237.71 378.757 246.078C380.276 251.754 378.969 254.939 381.041 258.526Z" fill="#1A2E35"></path><path d="M431.975 222.146C431.887 222.505 431.826 222.861 431.799 223.213C431.564 226.388 432.123 229.59 432.915 232.653C433.271 234.024 433.778 235.364 433.995 236.752C434.516 240.09 434.508 243.304 436.971 246.012C436.971 246.012 441.692 229.517 439.792 217.734C439.571 216.369 439.135 212.938 437.051 213.572C435.528 214.034 434.43 216.657 433.791 217.922C433.14 219.213 432.336 220.69 431.975 222.146Z" fill="#1A2E35"></path><path d="M366.897 206.675C368.958 205.168 375.04 202.244 381.369 204.731C387.328 193.852 396.696 187.895 396.696 187.895" stroke="#1A2E35" stroke-width="1.33333" stroke-miterlimit="10" stroke-linecap="round" stroke-linejoin="round"></path><mask id="mask20_2131_25933" style="mask-type:luminance" maskUnits="userSpaceOnUse" x="386" y="197" width="55" height="21"><path d="M386.493 197.891H440.22V217.632H386.493V197.891Z" fill="white"></path></mask><g mask="url(#mask20_2131_25933)"><g opacity="0.470001"><path d="M387.16 202.669C387.16 202.669 412.545 220.725 427.919 216.254C443.293 211.786 439.003 198.557 439.003 198.557" stroke="white" stroke-width="1.33333" stroke-miterlimit="10" stroke-linecap="round" stroke-linejoin="round"></path></g></g><mask id="mask21_2131_25933" style="mask-type:luminance" maskUnits="userSpaceOnUse" x="388" y="192" width="40" height="14"><path d="M388.942 192.885H427.513V205.325H388.942V192.885Z" fill="white"></path></mask><g mask="url(#mask21_2131_25933)"><g opacity="0.470001"><path d="M389.609 199.63C389.609 199.63 421.482 214.288 426.846 193.551" stroke="white" stroke-width="1.33333" stroke-miterlimit="10" stroke-linecap="round" stroke-linejoin="round"></path></g></g><path d="M397.337 280.73C397.337 280.73 403.402 292.513 408.154 292.313C412.908 292.112 421.629 279.445 421.629 279.445C421.629 279.445 416.925 285.512 409.782 286.141C405.086 286.553 397.337 280.73 397.337 280.73Z" fill="#1A2E35"></path><path d="M417.97 367.394C417.97 371.282 414.817 374.436 410.927 374.436C407.039 374.436 403.886 371.282 403.886 367.394C403.886 363.505 407.039 360.353 410.927 360.353C414.799 360.349 417.943 363.48 417.955 367.353L417.97 367.394ZM434.021 366.7L435.007 366.248C436.142 365.749 436.783 364.533 436.554 363.313L436.354 362.114C436.153 360.892 435.137 359.97 433.901 359.888L432.715 359.794C431.757 359.722 430.911 359.142 430.501 358.274C430.181 357.593 429.834 356.941 429.461 356.301C428.985 355.476 428.985 354.46 429.461 353.634L430.074 352.593C430.687 351.525 430.513 350.178 429.647 349.301L428.794 348.448C427.921 347.557 426.549 347.392 425.489 348.046L424.435 348.674C423.609 349.15 422.593 349.15 421.769 348.674C420.066 347.696 418.241 346.95 416.341 346.461C415.391 346.214 414.654 345.466 414.421 344.514L414.114 343.274C413.825 342.044 412.711 341.188 411.447 341.221H410.247C408.989 341.186 407.877 342.036 407.581 343.26L407.247 344.593C407.013 345.526 406.294 346.258 405.367 346.514C404.701 346.7 404.034 346.901 403.407 347.141C402.495 347.474 401.474 347.285 400.741 346.646L399.674 345.728C398.754 344.92 397.401 344.842 396.394 345.54L395.447 346.181C394.395 346.88 393.978 348.221 394.447 349.394L394.927 350.646C395.282 351.545 395.125 352.565 394.514 353.313C394.089 353.822 393.687 354.352 393.314 354.901C392.762 355.709 391.809 356.149 390.834 356.046L389.501 355.926C388.265 355.79 387.097 356.526 386.687 357.7L386.261 358.873C385.835 360.014 386.235 361.298 387.234 361.993L388.461 362.861C389.246 363.413 389.674 364.345 389.581 365.301C389.505 365.996 389.47 366.696 389.474 367.394C389.442 368.326 388.941 369.18 388.141 369.66L386.887 370.354C385.773 370.937 385.217 372.221 385.554 373.433L385.861 374.593C386.171 375.802 387.279 376.634 388.527 376.593H389.861C390.823 376.586 391.714 377.094 392.194 377.926C392.554 378.568 392.942 379.181 393.354 379.781C393.894 380.569 393.97 381.588 393.554 382.448L393.007 383.581C392.454 384.697 392.747 386.048 393.715 386.834L394.634 387.608C395.578 388.417 396.954 388.466 397.954 387.728L398.901 387.061C399.679 386.504 400.698 386.408 401.567 386.808C402.243 387.128 402.937 387.421 403.647 387.688C404.538 388.021 405.182 388.804 405.341 389.741L405.542 390.901C405.742 392.122 406.759 393.045 407.995 393.128L409.221 393.234C410.45 393.349 411.598 392.604 411.995 391.433L412.367 390.394C412.687 389.478 413.479 388.81 414.435 388.646C415.189 388.529 415.938 388.368 416.674 388.168C417.602 387.921 418.589 388.19 419.261 388.873L420.049 389.674C420.905 390.557 422.254 390.738 423.314 390.114L424.367 389.514C425.483 388.93 426.039 387.646 425.701 386.433L425.407 385.394C425.122 384.448 425.385 383.422 426.087 382.728C426.634 382.181 427.167 381.608 427.662 381.008C428.282 380.265 429.258 379.918 430.209 380.1L431.275 380.301C432.491 380.54 433.711 379.91 434.221 378.781L434.727 377.688C435.27 376.558 434.953 375.205 433.967 374.433L433.167 373.781C432.419 373.19 432.043 372.245 432.181 371.301C432.311 370.506 432.395 369.704 432.435 368.901C432.523 367.933 433.13 367.089 434.021 366.7Z" fill="#1A2E35"></path><path d="M346.749 410.352C345.802 411.642 344.431 412.472 343.29 413.562C340.07 416.644 337.222 421.044 335.914 425.321C335.281 427.39 335.141 429.685 335.959 431.692C337.521 435.521 342.494 439.49 346.477 436.974" stroke="#1A2E35" stroke-width="1.33333" stroke-miterlimit="10" stroke-linecap="round" stroke-linejoin="round"></path><path d="M346.427 403.539C342.639 402.949 338.91 405.143 336.316 407.966C333.722 410.789 331.923 414.241 329.562 417.261" stroke="#1A2E35" stroke-width="1.33333" stroke-miterlimit="10" stroke-linecap="round" stroke-linejoin="round"></path><path d="M346.141 442.468C341.539 443.419 335.35 442.918 331.127 440.858C328.071 439.368 325.419 437.179 322.801 435.011C319.523 432.298 316.245 429.584 312.966 426.871C311.385 425.56 309.63 423.706 310.283 421.759C310.283 421.759 326.729 335.057 329.313 325.686C332.298 314.866 344.346 307.505 344.346 307.505" stroke="#1A2E35" stroke-width="1.33333" stroke-miterlimit="10" stroke-linecap="round" stroke-linejoin="round"></path><path d="M469.561 411.324C473.53 414.078 477.289 419.248 478.912 423.798C480.533 428.348 481.196 433.174 481.848 437.959C479.296 439.386 474.048 443.076 469.561 443.076" stroke="#1A2E35" stroke-width="1.33333" stroke-miterlimit="10" stroke-linecap="round" stroke-linejoin="round"></path><path d="M470.12 404.074C474.109 403.02 478.066 405.73 481.076 408.554C484.086 411.378 487.201 414.66 491.305 415.1" stroke="#1A2E35" stroke-width="1.33333" stroke-miterlimit="10" stroke-linecap="round" stroke-linejoin="round"></path><path d="M470.887 449.125C478.613 448.31 485.66 444.081 491.247 438.68C496.831 433.278 501.143 426.724 505.408 420.228C508.863 414.966 512.376 409.572 513.891 403.462C513.891 403.462 500.248 358.377 492.669 337.445C484.775 315.638 476.247 310.072 476.247 310.072" stroke="#1A2E35" stroke-width="1.33333" stroke-miterlimit="10" stroke-linecap="round" stroke-linejoin="round"></path><path d="M470.12 404.075C477.153 398.163 487.942 402.954 495.51 406.908" stroke="#1A2E35" stroke-width="1.33333" stroke-miterlimit="10" stroke-linecap="round" stroke-linejoin="round"></path><path d="M469.561 450.526H346.749V379.938H469.561V450.526Z" fill="white"></path><path d="M470.12 454.215H346.132V450.526H470.12V454.215Z" fill="#1A2E35"></path><path d="M346.131 450.526L469.561 379.938L470.119 450.526H346.131Z" fill="#1A2E35"></path><mask id="mask22_2131_25933" style="mask-type:luminance" maskUnits="userSpaceOnUse" x="346" y="379" width="125" height="72"><path d="M346.132 379.937H470.118V450.526H346.132V379.937Z" fill="white"></path></mask><g mask="url(#mask22_2131_25933)"><g opacity="0.899994"><path d="M346.131 450.525L469.561 379.937L470.119 450.525H346.131Z" fill="white"></path></g></g><path d="M420.273 414.092C420.273 419.872 415.588 424.558 409.808 424.558C404.029 424.558 399.345 419.872 399.345 414.092C399.345 408.314 404.029 403.628 409.808 403.628C415.588 403.628 420.273 408.314 420.273 414.092Z" fill="#1A2E35"></path><path d="M469.561 450.526H346.749V379.938H469.561V450.526Z" stroke="#1A2E35" stroke-width="1.33333" stroke-miterlimit="10" stroke-linecap="round" stroke-linejoin="round"></path><path d="M377.487 236.494C377.487 236.494 380.173 261.158 383.591 265.552C387.011 269.948 397.999 286.066 409.964 285.82C421.929 285.578 429.744 270.192 431.697 263.599C433.651 257.006 435.605 247.726 436.093 237.959" stroke="#1A2E35" stroke-width="1.33333" stroke-miterlimit="10" stroke-linecap="round" stroke-linejoin="round"></path><path d="M432.944 261.049C432.944 261.049 441.821 256.465 436.093 244.823" stroke="#1A2E35" stroke-width="1.33333" stroke-miterlimit="10" stroke-linecap="round" stroke-linejoin="round"></path></g><defs><clipPath id="clip0_2131_25933"><rect width="660" height="523" fill="white"></rect></clipPath></defs></svg> 