<?xml version="1.0" encoding="UTF-8"?> <svg xmlns="http://www.w3.org/2000/svg" width="117" height="117" viewBox="0 0 117 117" fill="none"><rect width="117" height="117" rx="20" fill="#F0F8FF"></rect><path fill-rule="evenodd" clip-rule="evenodd" d="M32.857 29.1592C31.6867 29.5347 30.8558 30.2636 30.3331 31.3732L30.0372 32.0014V37.498V42.9946L30.4118 43.7521C30.8391 44.6165 31.4414 45.1967 32.3694 45.6378C32.975 45.9256 33.0627 45.9351 35.0997 45.9351C37.1359 45.9351 37.2252 45.9254 37.8437 45.6366C38.743 45.2167 39.3599 44.6177 39.7914 43.7446L40.1622 42.9946V37.498V32.0014L39.8625 31.3648C39.441 30.4697 38.8391 29.8552 37.9631 29.4254C37.2114 29.0566 37.2076 29.0561 35.2733 29.0307C33.8912 29.0126 33.1991 29.0494 32.857 29.1592ZM46.7711 29.2685C45.6362 29.9526 45.6478 31.5032 46.7927 32.1439C47.1707 32.3554 47.42 32.3979 48.2834 32.3979H49.3202V37.4956V42.5933H48.2834C47.42 42.5933 47.1707 42.6358 46.7927 42.8473C45.6412 43.4918 45.6412 45.0933 46.7927 45.7378C47.2376 45.9867 47.3216 45.9918 51.0183 45.9918C54.5739 45.9918 54.8157 45.9788 55.2389 45.7638C55.7437 45.5073 56.1461 44.8547 56.1461 44.2926C56.1461 43.7304 55.7437 43.0778 55.2389 42.8214C54.8869 42.6426 54.5677 42.5933 53.7616 42.5933H52.7332V36.4715C52.7332 30.5597 52.7253 30.3345 52.5042 29.9028C52.096 29.1061 51.7166 28.9993 49.2964 29C47.3103 29.0006 47.1954 29.0128 46.7711 29.2685ZM62.6981 29.2685C61.5632 29.9526 61.5748 31.5032 62.7197 32.1439C63.0976 32.3554 63.347 32.3979 64.2104 32.3979H65.2472V37.4956V42.5933H64.2104C63.347 42.5933 63.0976 42.6358 62.7197 42.8473C61.5682 43.4918 61.5682 45.0933 62.7197 45.7378C63.1645 45.9867 63.2486 45.9918 66.9452 45.9918C70.5008 45.9918 70.7427 45.9788 71.1659 45.7638C71.6707 45.5073 72.073 44.8547 72.073 44.2926C72.073 43.7304 71.6707 43.0778 71.1659 42.8214C70.8139 42.6426 70.4947 42.5933 69.6885 42.5933H68.6601V36.4715C68.6601 30.5597 68.6523 30.3345 68.4311 29.9028C68.0229 29.1061 67.6435 28.9993 65.2233 29C63.2372 29.0006 63.1223 29.0128 62.6981 29.2685ZM80.6379 29.1592C79.4676 29.5347 78.6367 30.2636 78.114 31.3732L77.8181 32.0014V37.498V42.9946L78.1926 43.7521C78.6199 44.6165 79.2223 45.1967 80.1503 45.6378C80.7559 45.9256 80.8436 45.9351 82.8806 45.9351C84.9168 45.9351 85.0061 45.9254 85.6246 45.6366C86.5239 45.2167 87.1407 44.6177 87.5722 43.7446L87.9431 42.9946V37.498V32.0014L87.6433 31.3648C87.2219 30.4697 86.6199 29.8552 85.7439 29.4254C84.9923 29.0566 84.9884 29.0561 83.0542 29.0307C81.6721 29.0126 80.98 29.0494 80.6379 29.1592ZM33.572 32.5759C33.4152 32.7321 33.3933 33.336 33.3933 37.4956C33.3933 41.6552 33.4152 42.2591 33.572 42.4154C33.8329 42.675 36.3666 42.675 36.6275 42.4154C36.7842 42.2591 36.8062 41.6552 36.8062 37.4956C36.8062 33.336 36.7842 32.7321 36.6275 32.5759C36.3666 32.3162 33.8329 32.3162 33.572 32.5759ZM81.3529 32.5759C81.1961 32.7321 81.1742 33.336 81.1742 37.4956C81.1742 41.6552 81.1961 42.2591 81.3529 42.4154C81.6137 42.675 84.1475 42.675 84.4084 42.4154C84.5651 42.2591 84.5871 41.6552 84.5871 37.4956C84.5871 33.336 84.5651 32.7321 84.4084 32.5759C84.1475 32.3162 81.6137 32.3162 81.3529 32.5759ZM30.8442 49.7726C29.7093 50.4567 29.7209 52.0073 30.8658 52.648C31.2437 52.8595 31.4931 52.902 32.3564 52.902H33.3933V57.9997V63.0974H32.3564C31.4931 63.0974 31.2437 63.1399 30.8658 63.3514C29.7143 63.9959 29.7143 65.5975 30.8658 66.2419C31.3106 66.4908 31.3947 66.4959 35.0913 66.4959C38.6469 66.4959 38.8888 66.4829 39.312 66.2679C39.8167 66.0114 40.2191 65.3588 40.2191 64.7967C40.2191 64.2346 39.8167 63.5819 39.312 63.3255C38.96 63.1467 38.6408 63.0974 37.8346 63.0974H36.8062V56.9756C36.8062 51.0638 36.7984 50.8386 36.5772 50.4069C36.169 49.6103 35.7896 49.5034 33.3694 49.5041C31.3833 49.5047 31.2684 49.5169 30.8442 49.7726ZM48.784 49.6633C47.6137 50.0388 46.7827 50.7677 46.2601 51.8773L45.9642 52.5055V58.0021V63.4987L46.3387 64.2562C46.766 65.1206 47.3684 65.7008 48.2964 66.1419C48.9019 66.4297 48.9896 66.4393 51.0267 66.4393C53.0629 66.4393 53.1522 66.4295 53.7707 66.1408C54.67 65.7208 55.2868 65.1218 55.7183 64.2487L56.0892 63.4987V58.0021V52.5055L55.7894 51.8689C55.3679 50.9738 54.766 50.3593 53.89 49.9295C53.1384 49.5607 53.1345 49.5602 51.2003 49.5348C49.8182 49.5167 49.126 49.5535 48.784 49.6633ZM64.7109 49.6633C63.5406 50.0388 62.7097 50.7677 62.1871 51.8773L61.8912 52.5055V58.0021V63.4987L62.2657 64.2562C62.693 65.1206 63.2954 65.7008 64.2233 66.1419C64.8289 66.4297 64.9166 66.4393 66.9537 66.4393C68.9898 66.4393 69.0791 66.4295 69.6976 66.1408C70.597 65.7208 71.2138 65.1218 71.6453 64.2487L72.0162 63.4987V58.0021V52.5055L71.7164 51.8689C71.2949 50.9738 70.693 50.3593 69.817 49.9295C69.0654 49.5607 69.0615 49.5602 67.1273 49.5348C65.7451 49.5167 65.053 49.5535 64.7109 49.6633ZM78.6251 49.7726C77.4901 50.4567 77.5017 52.0073 78.6467 52.648C79.0246 52.8595 79.274 52.902 80.1373 52.902H81.1742V57.9997V63.0974H80.1373C79.274 63.0974 79.0246 63.1399 78.6467 63.3514C77.4951 63.9959 77.4951 65.5975 78.6467 66.2419C79.0915 66.4908 79.1756 66.4959 82.8722 66.4959C86.4278 66.4959 86.6696 66.4829 87.0928 66.2679C87.5976 66.0114 88 65.3588 88 64.7967C88 64.2346 87.5976 63.5819 87.0928 63.3255C86.7409 63.1467 86.4216 63.0974 85.6155 63.0974H84.5871V56.9756C84.5871 51.0638 84.5792 50.8386 84.3581 50.4069C83.9499 49.6103 83.5705 49.5034 81.1503 49.5041C79.1642 49.5047 79.0493 49.5169 78.6251 49.7726ZM49.499 53.08C49.3422 53.2362 49.3202 53.8401 49.3202 57.9997C49.3202 62.1593 49.3422 62.7632 49.499 62.9195C49.7598 63.1791 52.2936 63.1791 52.5544 62.9195C52.7112 62.7632 52.7332 62.1593 52.7332 57.9997C52.7332 53.8401 52.7112 53.2362 52.5544 53.08C52.412 52.9383 52.1013 52.902 51.0267 52.902C49.9521 52.902 49.6414 52.9383 49.499 53.08ZM65.4259 53.08C65.2692 53.2362 65.2472 53.8401 65.2472 57.9997C65.2472 62.1593 65.2692 62.7632 65.4259 62.9195C65.6868 63.1791 68.2205 63.1791 68.4814 62.9195C68.6382 62.7632 68.6601 62.1593 68.6601 57.9997C68.6601 53.8401 68.6382 53.2362 68.4814 53.08C68.339 52.9383 68.0283 52.902 66.9537 52.902C65.879 52.902 65.5684 52.9383 65.4259 53.08ZM30.8442 70.2767C29.7093 70.9608 29.7209 72.5114 30.8658 73.1521C31.2437 73.3636 31.4931 73.4061 32.3564 73.4061H33.3933V78.5038V83.6015H32.3564C31.1185 83.6015 30.546 83.8478 30.1962 84.5307C29.7727 85.3572 30.0554 86.2924 30.8658 86.746C31.3106 86.9949 31.3947 87 35.0913 87C38.6469 87 38.8888 86.987 39.312 86.772C39.8167 86.5155 40.2191 85.8629 40.2191 85.3008C40.2191 84.7387 39.8167 84.086 39.312 83.8296C38.96 83.6508 38.6408 83.6015 37.8346 83.6015H36.8062V77.4798C36.8062 71.5679 36.7984 71.3427 36.5772 70.911C36.169 70.1144 35.7896 70.0075 33.3694 70.0082C31.3833 70.0088 31.2684 70.021 30.8442 70.2767ZM48.784 70.1674C47.6137 70.5429 46.7827 71.2718 46.2601 72.3814L45.9642 73.0096V78.5062V84.0028L46.3387 84.7603C46.766 85.6248 47.3684 86.2049 48.2964 86.646C48.9019 86.9338 48.9896 86.9434 51.0267 86.9434C53.0629 86.9434 53.1522 86.9336 53.7707 86.6449C54.67 86.2249 55.2868 85.6259 55.7183 84.7528L56.0892 84.0028V78.5062V73.0096L55.7894 72.373C55.3679 71.4779 54.766 70.8634 53.89 70.4336C53.1384 70.0649 53.1345 70.0643 51.2003 70.0389C49.8182 70.0208 49.126 70.0576 48.784 70.1674ZM62.6981 70.2767C61.5632 70.9608 61.5748 72.5114 62.7197 73.1521C63.0976 73.3636 63.347 73.4061 64.2104 73.4061H65.2472V78.5038V83.6015H64.2104C63.347 83.6015 63.0976 83.644 62.7197 83.8555C61.5682 84.5 61.5682 86.1016 62.7197 86.746C63.1645 86.9949 63.2486 87 66.9452 87C70.5008 87 70.7427 86.987 71.1659 86.772C71.6707 86.5155 72.073 85.8629 72.073 85.3008C72.073 84.7387 71.6707 84.086 71.1659 83.8296C70.8139 83.6508 70.4947 83.6015 69.6885 83.6015H68.6601V77.4798C68.6601 71.5679 68.6523 71.3427 68.4311 70.911C68.0229 70.1144 67.6435 70.0075 65.2233 70.0082C63.2372 70.0088 63.1223 70.021 62.6981 70.2767ZM80.6379 70.1674C79.4676 70.5429 78.6367 71.2718 78.114 72.3814L77.8181 73.0096V78.5062V84.0028L78.1926 84.7603C78.6199 85.6248 79.2223 86.2049 80.1503 86.646C80.7559 86.9338 80.8436 86.9434 82.8806 86.9434C84.9168 86.9434 85.0061 86.9336 85.6246 86.6449C86.5239 86.2249 87.1407 85.6259 87.5722 84.7528L87.9431 84.0028V78.5062V73.0096L87.6433 72.373C87.2219 71.4779 86.6199 70.8634 85.7439 70.4336C84.9923 70.0649 84.9884 70.0643 83.0542 70.0389C81.6721 70.0208 80.98 70.0576 80.6379 70.1674ZM49.499 73.5841C49.3422 73.7403 49.3202 74.3442 49.3202 78.5038C49.3202 82.6634 49.3422 83.2673 49.499 83.4236C49.7598 83.6832 52.2936 83.6832 52.5544 83.4236C52.7112 83.2673 52.7332 82.6634 52.7332 78.5038C52.7332 74.3442 52.7112 73.7403 52.5544 73.5841C52.412 73.4424 52.1013 73.4061 51.0267 73.4061C49.9521 73.4061 49.6414 73.4424 49.499 73.5841ZM81.3529 73.5841C81.1961 73.7403 81.1742 74.3442 81.1742 78.5038C81.1742 82.6634 81.1961 83.2673 81.3529 83.4236C81.6137 83.6832 84.1475 83.6832 84.4084 83.4236C84.5651 83.2673 84.5871 82.6634 84.5871 78.5038C84.5871 74.3442 84.5651 73.7403 84.4084 73.5841C84.2659 73.4424 83.9552 73.4061 82.8806 73.4061C81.806 73.4061 81.4953 73.4424 81.3529 73.5841Z" fill="#0384F0"></path></svg> 