<?xml version="1.0" encoding="UTF-8"?> <svg xmlns="http://www.w3.org/2000/svg" width="722" height="130" viewBox="0 0 722 130" fill="none"><path d="M63.4709 0.0557499C58.1735 0.0803645 53.1145 0.53216 48.6632 1.31982C35.5501 3.63647 33.1693 8.48542 33.1693 17.4277V29.2378H64.1571V33.1744H33.1693H21.5398C12.5339 33.1744 4.64806 38.5875 2.18147 48.8851C-0.663714 60.6884 -0.789914 68.0539 2.18147 80.3785C4.38419 89.5525 9.6446 96.0891 18.6505 96.0891H29.3048V81.9315C29.3048 71.7035 38.1544 62.6815 48.6632 62.6815H79.6149C88.2308 62.6815 95.1088 55.5875 95.1088 46.9348V17.4277C95.1088 9.02984 88.0243 2.72139 79.6149 1.31982C74.2917 0.4337 68.7683 0.031135 63.4709 0.0557499ZM46.7129 9.55435C49.9138 9.55435 52.5277 12.2109 52.5277 15.4774C52.5277 18.7323 49.9138 21.3644 46.7129 21.3644C43.5006 21.3644 40.8982 18.7323 40.8982 15.4774C40.8982 12.2109 43.5006 9.55435 46.7129 9.55435Z" fill="url(#paint0_linear_2131_25902)"></path><path d="M98.9734 33.1738V46.9342C98.9734 57.6024 89.9289 66.5815 79.6151 66.5815H48.6633C40.1852 66.5815 33.1694 73.8376 33.1694 82.3282V111.835C33.1694 120.233 40.472 125.173 48.6633 127.582C58.4724 130.466 67.8787 130.987 79.6151 127.582C87.4164 125.323 95.109 120.778 95.109 111.835V100.025H64.1573V96.0885H95.109H110.603C119.609 96.0885 122.965 89.8067 126.097 80.3779C129.332 70.6711 129.194 61.3365 126.097 48.8844C123.871 39.919 119.62 33.1738 110.603 33.1738H98.9734ZM81.5653 107.899C84.7777 107.899 87.3801 110.531 87.3801 113.786C87.3801 117.052 84.7776 119.709 81.5653 119.709C78.3645 119.709 75.7506 117.052 75.7506 113.786C75.7506 110.531 78.3645 107.899 81.5653 107.899Z" fill="url(#paint1_linear_2131_25902)"></path><path d="M176.279 90.5V44.6928H193.474C196.763 44.6928 199.793 45.1626 202.565 46.1023C205.337 47.0419 207.569 48.6158 209.26 50.8239C210.951 53.0321 211.797 56.0624 211.797 59.9149C211.797 63.6265 210.928 66.6803 209.189 69.0763C207.498 71.4254 205.243 73.1637 202.424 74.2913C199.652 75.4189 196.669 75.9826 193.474 75.9826H188.4V90.5H176.279ZM188.4 66.3984H192.91C195.306 66.3984 197.068 65.8346 198.196 64.707C199.37 63.5325 199.958 61.9351 199.958 59.9149C199.958 57.8477 199.347 56.3913 198.125 55.5456C196.904 54.6999 195.165 54.2771 192.91 54.2771H188.4V66.3984ZM224.384 103.749C223.303 103.749 222.293 103.678 221.354 103.537C220.414 103.396 219.545 103.232 218.746 103.044L220.86 93.8827C221.33 94.0236 221.777 94.1176 222.199 94.1646C222.622 94.2585 223.022 94.3055 223.397 94.3055C225.277 94.3055 226.71 93.9766 227.696 93.3189C228.73 92.6612 229.482 91.8155 229.951 90.7819L230.515 89.2315L215.716 55.2637H227.696L232.629 68.7944C233.24 70.4858 233.804 72.2241 234.321 74.0094C234.837 75.7477 235.331 77.58 235.801 79.5063H236.082C236.505 77.721 236.975 75.9357 237.492 74.1504C238.056 72.3181 238.596 70.5328 239.113 68.7944L243.341 55.2637H254.758L241.509 89.9362C240.287 93.084 238.925 95.668 237.421 97.6882C235.965 99.7554 234.203 101.282 232.136 102.269C230.069 103.256 227.485 103.749 224.384 103.749ZM283.483 91.3457C279.63 91.3457 276.553 90.6879 274.251 89.3724C271.949 88.057 270.281 86.2247 269.248 83.8756C268.214 81.4795 267.697 78.7076 267.697 75.5598V64.707H259.24V55.6865L268.261 55.2637L269.811 44.6928H279.818V55.2637H293.772V64.707H279.818V75.3484C279.818 76.9928 280.077 78.3082 280.594 79.2949C281.11 80.2345 281.862 80.9157 282.849 81.3386C283.882 81.7144 285.151 81.9023 286.654 81.9023C287.876 81.9023 289.003 81.8084 290.037 81.6205C291.118 81.3855 292.128 81.1037 293.067 80.7748L295.181 89.5134C293.631 89.9362 291.893 90.3356 289.966 90.7114C288.04 91.1343 285.879 91.3457 283.483 91.3457ZM303.047 90.5V41.4511H315.168V52.8676L314.463 59.0692H314.745C315.873 57.9417 317.353 56.8846 319.185 55.898C321.064 54.9113 323.296 54.418 325.88 54.418C329.779 54.418 332.598 55.7335 334.337 58.3645C336.122 60.9485 337.015 64.4251 337.015 68.7944V90.5H324.893V70.3448C324.893 68.3716 324.588 66.9387 323.977 66.046C323.413 65.1534 322.356 64.707 320.806 64.707C319.678 64.707 318.692 64.9419 317.846 65.4118C317 65.8816 316.108 66.5393 315.168 67.385V90.5H303.047ZM361.934 91.3457C358.834 91.3457 355.897 90.6175 353.125 89.161C350.353 87.7046 348.098 85.6139 346.36 82.889C344.622 80.117 343.752 76.7813 343.752 72.8819C343.752 68.9824 344.622 65.6702 346.36 62.9452C348.098 60.1733 350.353 58.0591 353.125 56.6027C355.897 55.1463 358.834 54.418 361.934 54.418C365.035 54.418 367.972 55.1463 370.743 56.6027C373.515 58.0591 375.771 60.1733 377.509 62.9452C379.247 65.6702 380.116 68.9824 380.116 72.8819C380.116 76.7813 379.247 80.117 377.509 82.889C375.771 85.6139 373.515 87.7046 370.743 89.161C367.972 90.6175 365.035 91.3457 361.934 91.3457ZM361.934 81.6205C363.297 81.6205 364.401 81.2681 365.247 80.5634C366.092 79.8586 366.703 78.8485 367.079 77.533C367.502 76.2176 367.713 74.6672 367.713 72.8819C367.713 71.0966 367.502 69.5462 367.079 68.2307C366.703 66.9152 366.092 65.9051 365.247 65.2003C364.401 64.4956 363.297 64.1433 361.934 64.1433C360.572 64.1433 359.468 64.4956 358.622 65.2003C357.777 65.9051 357.142 66.9152 356.719 68.2307C356.344 69.5462 356.156 71.0966 356.156 72.8819C356.156 74.6672 356.344 76.2176 356.719 77.533C357.142 78.8485 357.777 79.8586 358.622 80.5634C359.468 81.2681 360.572 81.6205 361.934 81.6205ZM387.559 90.5V55.2637H397.425L398.271 59.4921H398.553C399.962 58.1296 401.63 56.9551 403.556 55.9684C405.482 54.9348 407.738 54.418 410.322 54.418C414.221 54.418 417.063 55.7335 418.849 58.3645C420.634 60.9485 421.527 64.4251 421.527 68.7944V90.5H409.405V70.3448C409.405 68.3716 409.1 66.9387 408.489 66.046C407.925 65.1534 406.868 64.707 405.318 64.707C404.19 64.707 403.204 64.9419 402.358 65.4118C401.512 65.8816 400.62 66.5393 399.68 67.385V90.5H387.559ZM488.421 91.3457C485.414 91.3457 482.336 90.8054 479.189 89.7248C476.088 88.6442 473.245 86.9999 470.661 84.7917L477.568 76.476C479.306 77.7914 481.162 78.872 483.135 79.7177C485.155 80.5164 487.199 80.9157 489.266 80.9157C491.099 80.9157 492.391 80.6573 493.142 80.1405C493.941 79.6237 494.34 78.9895 494.34 78.2378C494.34 77.3451 494.082 76.6404 493.565 76.1236C493.048 75.6068 492.297 75.137 491.31 74.7141C490.323 74.2913 489.125 73.798 487.716 73.2342L482.008 70.8382C480.269 70.1804 478.648 69.2878 477.145 68.1602C475.689 66.9857 474.514 65.5762 473.621 63.9318C472.776 62.2405 472.353 60.2908 472.353 58.0826C472.353 55.4516 473.081 53.0791 474.537 50.9649C475.994 48.8037 478.038 47.0889 480.669 45.8204C483.3 44.5049 486.353 43.8472 489.83 43.8472C492.555 43.8472 495.28 44.364 498.005 45.3976C500.777 46.3842 503.267 47.9111 505.475 49.9783L499.414 57.5893C497.77 56.5087 496.196 55.6865 494.693 55.1228C493.189 54.559 491.333 54.2771 489.125 54.2771C487.81 54.2771 486.729 54.5355 485.884 55.0523C485.038 55.5221 484.615 56.2973 484.615 57.3779C484.615 58.0826 484.897 58.6699 485.461 59.1397C486.024 59.6095 486.847 60.0558 487.927 60.4787C489.008 60.9015 490.3 61.3948 491.803 61.9586L497.089 64.1433C499.156 64.895 500.894 65.8581 502.304 67.0326C503.76 68.1602 504.864 69.5227 505.616 71.12C506.368 72.7174 506.743 74.5732 506.743 76.6874C506.743 79.2714 506.039 81.6909 504.629 83.9461C503.22 86.1542 501.153 87.9395 498.428 89.302C495.703 90.6644 492.367 91.3457 488.421 91.3457ZM533.918 91.3457C530.207 91.3457 526.848 90.6175 523.841 89.161C520.881 87.7046 518.532 85.6139 516.793 82.889C515.055 80.117 514.186 76.7813 514.186 72.8819C514.186 68.9824 515.149 65.6702 517.075 62.9452C519.002 60.1733 521.539 58.0591 524.686 56.6027C527.834 55.1463 531.217 54.418 534.834 54.418C537.606 54.418 540.143 54.8409 542.445 55.6865C544.795 56.5322 546.697 57.6598 548.154 59.0692L542.657 66.5393C541.341 65.6467 540.096 65.0359 538.922 64.707C537.794 64.3312 536.667 64.1433 535.539 64.1433C533.801 64.1433 532.25 64.4956 530.888 65.2003C529.526 65.9051 528.468 66.9152 527.717 68.2307C526.965 69.5462 526.589 71.0966 526.589 72.8819C526.589 74.6672 526.942 76.2176 527.646 77.533C528.398 78.8485 529.408 79.8586 530.677 80.5634C531.992 81.2681 533.472 81.6205 535.116 81.6205C536.855 81.6205 538.429 81.3151 539.838 80.7043C541.294 80.0935 542.61 79.4123 543.784 78.6606L548.577 86.2716C546.415 88.057 544.019 89.3489 541.388 90.1476C538.757 90.9463 536.267 91.3457 533.918 91.3457ZM556.583 90.5V41.4511H568.704V52.8676L567.999 59.0692H568.281C569.409 57.9417 570.889 56.8846 572.721 55.898C574.6 54.9113 576.832 54.418 579.416 54.418C583.316 54.418 586.134 55.7335 587.873 58.3645C589.658 60.9485 590.551 64.4251 590.551 68.7944V90.5H578.429V70.3448C578.429 68.3716 578.124 66.9387 577.513 66.046C576.95 65.1534 575.892 64.707 574.342 64.707C573.214 64.707 572.228 64.9419 571.382 65.4118C570.537 65.8816 569.644 66.5393 568.704 67.385V90.5H556.583ZM615.47 91.3457C612.37 91.3457 609.433 90.6175 606.661 89.161C603.889 87.7046 601.634 85.6139 599.896 82.889C598.158 80.117 597.289 76.7813 597.289 72.8819C597.289 68.9824 598.158 65.6702 599.896 62.9452C601.634 60.1733 603.889 58.0591 606.661 56.6027C609.433 55.1463 612.37 54.418 615.47 54.418C618.571 54.418 621.508 55.1463 624.28 56.6027C627.051 58.0591 629.307 60.1733 631.045 62.9452C632.783 65.6702 633.652 68.9824 633.652 72.8819C633.652 76.7813 632.783 80.117 631.045 82.889C629.307 85.6139 627.051 87.7046 624.28 89.161C621.508 90.6175 618.571 91.3457 615.47 91.3457ZM615.47 81.6205C616.833 81.6205 617.937 81.2681 618.783 80.5634C619.628 79.8586 620.239 78.8485 620.615 77.533C621.038 76.2176 621.249 74.6672 621.249 72.8819C621.249 71.0966 621.038 69.5462 620.615 68.2307C620.239 66.9152 619.628 65.9051 618.783 65.2003C617.937 64.4956 616.833 64.1433 615.47 64.1433C614.108 64.1433 613.004 64.4956 612.158 65.2003C611.313 65.9051 610.678 66.9152 610.256 68.2307C609.88 69.5462 609.692 71.0966 609.692 72.8819C609.692 74.6672 609.88 76.2176 610.256 77.533C610.678 78.8485 611.313 79.8586 612.158 80.5634C613.004 81.2681 614.108 81.6205 615.47 81.6205ZM657.726 91.3457C654.626 91.3457 651.689 90.6175 648.917 89.161C646.145 87.7046 643.89 85.6139 642.152 82.889C640.414 80.117 639.545 76.7813 639.545 72.8819C639.545 68.9824 640.414 65.6702 642.152 62.9452C643.89 60.1733 646.145 58.0591 648.917 56.6027C651.689 55.1463 654.626 54.418 657.726 54.418C660.827 54.418 663.764 55.1463 666.536 56.6027C669.307 58.0591 671.563 60.1733 673.301 62.9452C675.039 65.6702 675.908 68.9824 675.908 72.8819C675.908 76.7813 675.039 80.117 673.301 82.889C671.563 85.6139 669.307 87.7046 666.536 89.161C663.764 90.6175 660.827 91.3457 657.726 91.3457ZM657.726 81.6205C659.089 81.6205 660.193 81.2681 661.039 80.5634C661.884 79.8586 662.495 78.8485 662.871 77.533C663.294 76.2176 663.505 74.6672 663.505 72.8819C663.505 71.0966 663.294 69.5462 662.871 68.2307C662.495 66.9152 661.884 65.9051 661.039 65.2003C660.193 64.4956 659.089 64.1433 657.726 64.1433C656.364 64.1433 655.26 64.4956 654.414 65.2003C653.569 65.9051 652.934 66.9152 652.512 68.2307C652.136 69.5462 651.948 71.0966 651.948 72.8819C651.948 74.6672 652.136 76.2176 652.512 77.533C652.934 78.8485 653.569 79.8586 654.414 80.5634C655.26 81.2681 656.364 81.6205 657.726 81.6205ZM706.396 91.3457C701.697 91.3457 698.15 89.9362 695.754 87.1173C693.405 84.2514 692.231 80.5399 692.231 75.9826V50.8944H681.66V41.4511H704.352V76.4055C704.352 78.4257 704.916 79.8117 706.043 80.5634C707.218 81.2681 708.416 81.6205 709.637 81.6205C710.389 81.6205 711.164 81.55 711.963 81.409C712.762 81.2211 713.678 80.9627 714.711 80.6338L717.319 89.5134C715.44 90.0772 713.725 90.5235 712.174 90.8524C710.624 91.1812 708.698 91.3457 706.396 91.3457Z" fill="black"></path><defs><linearGradient id="paint0_linear_2131_25902" x1="-3.86044e-07" y1="0.0546872" x2="71.4545" y2="60.9439" gradientUnits="userSpaceOnUse"><stop stop-color="#5A9FD4"></stop><stop offset="1" stop-color="#306998"></stop></linearGradient><linearGradient id="paint1_linear_2131_25902" x1="80.8207" y1="112.793" x2="55.1855" y2="76.8701" gradientUnits="userSpaceOnUse"><stop stop-color="#FFD43B"></stop><stop offset="1" stop-color="#FFE873"></stop></linearGradient></defs></svg> 