<?xml version="1.0" encoding="UTF-8"?> <svg xmlns="http://www.w3.org/2000/svg" width="117" height="117" viewBox="0 0 117 117" fill="none"><rect width="117" height="117" rx="20" fill="#F0F8FF"></rect><path fill-rule="evenodd" clip-rule="evenodd" d="M56.6698 31.0243C49.883 31.7187 44.2095 34.256 39.5327 38.6886C35.054 42.9331 32.1997 48.3453 31.2343 54.423C30.9219 56.3896 30.9219 60.5678 31.2343 62.5345C32.1823 68.5025 35.0409 73.9857 39.3452 78.0918C44.3097 82.8278 50.5801 85.5569 57.4239 85.9606C58.6878 86.0352 58.8492 86.0195 59.3385 85.7746C60.6579 85.1141 60.8275 83.3601 59.6567 82.4838C59.274 82.1972 59.0555 82.1463 57.8209 82.0563C57.05 82.0002 56.3026 81.9276 56.1599 81.8952C55.8616 81.8274 54.6288 80.4273 53.4512 78.8189C52.63 77.6971 51.132 75.3352 51.069 75.0628C51.0501 74.9809 51.2036 74.8656 51.4102 74.8066C52.2218 74.5751 54.6956 74.1886 56.3523 74.0346C57.5999 73.9185 58.2128 73.8061 58.5095 73.6391C58.9642 73.3828 59.4874 72.5048 59.4874 71.9978C59.4874 71.5452 58.9852 70.6426 58.5685 70.3459C58.2564 70.1237 58.0427 70.0947 56.8153 70.1082C55.2456 70.1256 52.5576 70.493 50.6028 70.9575C49.8815 71.1289 49.2528 71.2201 49.1935 71.1619C49.0012 70.9732 48.2292 68.7132 47.8523 67.2357C47.2886 65.0267 46.8394 62.2495 46.8394 60.974V60.4517L53.2796 60.4176C59.561 60.3846 59.7282 60.3774 60.0655 60.1303C60.2556 59.9909 60.5273 59.7242 60.6693 59.5376C60.9209 59.207 60.9284 59.0405 60.9622 53.0706L60.9969 46.9429L61.7136 46.8681C64.5128 46.5762 66.3843 46.266 68.3947 45.7605C68.7217 45.6784 68.7286 45.6913 69.3545 47.5617C70.0033 49.5002 70.5069 51.6077 70.7591 53.4398C70.9313 54.6894 71.2396 55.2813 71.9117 55.652C72.3029 55.8678 72.5438 55.9141 73.0334 55.8681C73.8126 55.7946 74.2448 55.4925 74.6193 54.76L74.9117 54.1879L74.7056 52.8C74.3173 50.186 73.5493 47.1443 72.8095 45.2917C72.6449 44.8796 72.5528 44.5042 72.6046 44.4575C72.6565 44.4108 73.1779 44.169 73.7633 43.9202C74.3488 43.6713 75.2452 43.248 75.7553 42.9794C76.2655 42.7107 76.7218 42.5349 76.7696 42.5885C80.2078 46.4546 82.3839 51.138 82.8537 55.6827L82.9395 56.5123H81.0009C79.2255 56.5123 79.0169 56.5359 78.5236 56.7919C77.7884 57.1734 77.4917 57.7267 77.55 58.6072C77.6041 59.4248 77.8851 59.8534 78.5929 60.1975C79.0362 60.4131 79.3494 60.4451 81.0146 60.4451H82.9275L82.8405 61.4695C82.7638 62.3727 82.7849 62.5542 83.0187 63.0039C83.1645 63.2845 83.4228 63.6033 83.5924 63.7126C84.6594 64.3986 86.1243 63.9761 86.6067 62.8429C87.074 61.7453 87.139 57.1375 86.7255 54.423C85.0741 43.582 76.8781 34.6026 66.1297 31.8588C63.9161 31.2937 62.0883 31.0592 59.55 31.0147C58.2414 30.9918 56.9453 30.9962 56.6698 31.0243ZM55.4523 35.6362C54.0748 37.076 50.8288 41.8036 51.0664 42.0237C51.2563 42.1998 53.9989 42.6637 56.388 42.9237L56.9829 42.9885V38.9966V35.0046H56.5196C56.1239 35.0046 55.9683 35.0967 55.4523 35.6362ZM60.9901 38.99V42.9754L61.7102 42.9117C63.968 42.7116 66.8758 42.1715 66.8758 41.952C66.8758 41.5903 64.7586 38.3567 63.5284 36.8395C62.2465 35.2586 61.9581 35.0046 61.445 35.0046H60.9901V38.99ZM47.8564 37.5912C46.464 38.3132 44.5853 39.503 44.5853 39.6628C44.5853 39.7348 45.3095 40.0668 46.6108 40.5911L47.0709 40.7764L47.5382 39.9492C47.7952 39.4941 48.3311 38.6103 48.7291 37.985C49.1272 37.3596 49.4142 36.849 49.3671 36.8502C49.3199 36.8513 48.6402 37.1847 47.8564 37.5912ZM69.1094 37.8006C69.4435 38.3245 69.9607 39.1955 70.2587 39.7363C70.5568 40.2771 70.8136 40.7371 70.8295 40.7585C70.8886 40.8386 73.3877 39.7628 73.3877 39.6574C73.3877 39.4095 68.9932 36.8481 68.5678 36.8481C68.5317 36.8481 68.7754 37.2767 69.1094 37.8006ZM40.639 43.2696C38.968 45.0734 37.0282 48.4638 36.1389 51.1353C35.6574 52.5813 35.2516 54.39 35.1188 55.6827L35.0335 56.5123H38.9144H42.7952L42.8815 55.2038C43.0588 52.5121 43.8409 48.8108 44.8476 45.8988C45.1246 45.0972 45.3339 44.4246 45.3127 44.404C45.2915 44.3834 44.7387 44.1365 44.0844 43.8553C43.4301 43.574 42.5474 43.1543 42.1227 42.9226L41.3507 42.5012L40.639 43.2696ZM48.9738 46.2664C48.0444 48.3286 46.8394 53.8041 46.8394 55.9655V56.5123H51.9111H56.9829V51.728V46.9437L56.2628 46.8676C53.9847 46.6269 53.1167 46.5002 51.5355 46.1775C50.5712 45.9809 49.6604 45.7871 49.5115 45.7469C49.2822 45.6852 49.2001 45.7645 48.9738 46.2664ZM66.5456 58.8378C65.7742 59.1817 65.0623 59.8759 64.7496 60.5893C64.504 61.1496 64.379 62.2583 63.6723 70.1439C63.2326 75.0503 62.9076 79.2582 62.9503 79.4948C63.0708 80.1629 63.5572 81.013 64.0732 81.4578C64.8006 82.0845 65.4371 82.3159 66.4375 82.3176C67.6441 82.3197 68.352 81.9799 69.3353 80.9269L70.0984 80.1095L71.0856 82.2037C72.1881 84.5427 72.5578 85.0535 73.5305 85.5824C74.1073 85.8959 74.3336 85.9471 75.1408 85.9469C76.0643 85.9468 76.1229 85.9272 78.6334 84.7798C80.2333 84.0486 81.3841 83.4423 81.7153 83.1562C82.4395 82.5305 82.8328 81.6283 82.8307 80.5976C82.8291 79.8543 82.7536 79.6349 81.8025 77.6122C81.2379 76.4115 80.7761 75.376 80.7761 75.3111C80.7761 75.246 81.2138 75.1933 81.7556 75.1933C83.4891 75.1933 84.5779 74.5884 85.2453 73.2544C85.913 71.9199 85.6307 70.2412 84.5759 69.2751C84.0111 68.7578 69.8737 59.0817 69.3178 58.8321C68.6337 58.5247 67.2417 58.5276 66.5456 58.8378ZM35.1188 61.2747C35.585 65.8099 37.8247 70.6248 41.215 74.3803C41.2694 74.4408 41.8035 74.2445 42.417 73.9386C43.0241 73.6358 43.9548 73.2047 44.4852 72.9807C45.2695 72.6494 45.4296 72.5368 45.343 72.3777C45.2845 72.2702 45.03 71.6015 44.7777 70.8917C43.8447 68.2685 43.0648 64.4936 42.8781 61.6977L42.7945 60.4451H38.914H35.0335L35.1188 61.2747ZM68.3674 62.9277C68.342 63.0117 67.0386 77.4689 67.0544 77.4914C67.0639 77.5048 67.6196 76.9124 68.2892 76.175C69.6033 74.7276 70.0468 74.4666 70.9197 74.6273C72.0125 74.8285 72.0992 74.9641 74.7938 80.6856L75.3835 81.9378L77.0154 81.1848C77.9129 80.7705 78.6472 80.393 78.6472 80.3457C78.6472 80.2982 77.9662 78.8293 77.1338 77.0812C75.6632 73.9927 75.6218 73.8828 75.6704 73.196C75.711 72.6214 75.7891 72.4174 76.0881 72.1055C76.6815 71.4861 77.0809 71.3833 78.8937 71.3833C79.7913 71.3833 80.5241 71.3419 80.5222 71.2912C80.5204 71.2404 77.8633 69.3739 74.6176 67.1433C68.5958 63.0047 68.3868 62.8637 68.3674 62.9277ZM45.8063 76.6949C45.1347 76.9763 44.5853 77.2447 44.5853 77.2912C44.5853 77.5122 48.9757 80.0951 49.3712 80.1067C49.4205 80.1081 49.134 79.5977 48.7344 78.9725C48.3348 78.3473 47.7964 77.4623 47.5381 77.0061C47.2797 76.5499 47.0591 76.178 47.0478 76.1798C47.0365 76.1817 46.4779 76.4134 45.8063 76.6949Z" fill="#0384F0"></path></svg> 