<?xml version="1.0" encoding="UTF-8"?> <svg xmlns="http://www.w3.org/2000/svg" width="117" height="117" viewBox="0 0 117 117" fill="none"><rect width="117" height="117" rx="20" fill="#F0F8FF"></rect><path fill-rule="evenodd" clip-rule="evenodd" d="M76.1831 31.0967C73.6335 31.2861 71.1034 31.6959 68.6078 32.3236C61.7217 34.0556 56.2707 37.2584 50.9271 42.7124C50.0969 43.5596 49.154 44.5548 48.8318 44.9238L48.2459 45.5947L44.0588 45.9202C39.7925 46.2517 39.3208 46.3182 38.5921 46.6901C37.7131 47.1387 37.2147 47.7748 34.3602 52.0913C32.7994 54.4516 31.418 56.5798 31.2905 56.8206C31.1136 57.1548 31.0581 57.4492 31.0562 58.0646C31.0542 58.7588 31.0978 58.9501 31.3706 59.443C31.7374 60.1053 32.2982 60.5883 32.9554 60.8079C33.2096 60.8928 34.8682 61.1835 36.6412 61.4537C38.4141 61.724 39.942 61.9677 40.0363 61.9953C40.1774 62.0366 40.2067 62.2129 40.2007 62.984C40.1918 64.1378 40.4037 64.8142 41.0418 65.6689C41.2957 66.009 43.7215 68.4925 46.4326 71.188C51.7143 76.439 51.8039 76.5137 53.1349 76.7703C53.4599 76.8328 54.0018 76.8533 54.3392 76.8154C54.9198 76.7504 54.9555 76.7602 55.011 76.9987C55.0431 77.1372 55.2882 78.6774 55.5555 80.4213C55.8228 82.1652 56.1107 83.8002 56.1953 84.0545C56.4139 84.7114 56.8969 85.2726 57.5593 85.6398C58.0519 85.9127 58.2432 85.9563 58.9372 85.9543C59.555 85.9523 59.8465 85.8971 60.1857 85.7174C60.4292 85.5885 62.5567 84.2072 64.9135 82.6478C69.2273 79.7939 69.8577 79.2994 70.3082 78.4161C70.6788 77.6894 70.7442 77.2262 71.0794 72.951L71.408 68.7593L72.0763 68.1731C73.3784 67.0313 75.8396 64.5501 76.9172 63.2928C80.8948 58.6524 83.274 54.0423 84.7241 48.1659C85.5196 44.9422 85.8809 42.1414 85.9777 38.4487C86.0802 34.5377 85.8596 33.4964 84.6787 32.3151C83.9591 31.5952 83.1927 31.2257 82.1346 31.0883C81.1999 30.9669 77.8663 30.9716 76.1831 31.0967ZM76.2906 34.3193C71.2209 34.7257 66.3273 36.0299 62.4427 38.0099C59.2007 39.6622 56.4798 41.7012 53.4007 44.7853C50.4825 47.7084 48.1332 50.8672 46.4162 54.177L46.0073 54.9649L54.0032 62.9638C58.401 67.3631 62.0388 70.9627 62.0875 70.9627C62.287 70.9627 64.6781 69.5776 66.0827 68.6486C68.2113 67.2404 70.2226 65.5877 72.1595 63.6553C77.0296 58.7962 79.7643 54.2233 81.3843 48.2298C82.3283 44.7371 82.716 41.7434 82.7287 37.8482C82.7382 34.9341 82.709 34.7371 82.2208 34.413C81.9375 34.225 78.2022 34.166 76.2906 34.3193ZM67.6408 40.3275C63.6766 40.845 60.6511 44.288 60.6583 48.2738C60.6627 50.6566 61.5298 52.6473 63.2627 54.2521C64.1927 55.1134 65.7469 55.9111 67.0387 56.1902C68.1593 56.4322 69.9549 56.3572 71.0255 56.0236C73.6706 55.1994 75.7033 53.0882 76.4659 50.3733C76.7647 49.3095 76.7912 47.5279 76.5244 46.4316C75.7397 43.2067 73.06 40.799 69.7421 40.3373C68.8414 40.212 68.5366 40.2106 67.6408 40.3275ZM67.684 43.6064C65.9136 43.9917 64.5052 45.3174 64.0401 47.0367C63.2449 49.975 65.3261 52.9056 68.3416 53.0938C70.8966 53.2533 73.0124 51.5772 73.4593 49.0397C73.8925 46.5797 72.0577 44.0235 69.5282 43.5628C68.7447 43.4202 68.515 43.4255 67.684 43.6064ZM42.5917 49.2522C41.3139 49.3574 40.1652 49.4987 40.039 49.5663C39.826 49.6803 34.4077 57.7472 34.4893 57.8288C34.5386 57.8781 40.5566 58.8131 40.839 58.8153C41.016 58.8166 41.1002 58.6914 41.2531 58.1989C42.0614 55.5967 43.4574 52.6189 45.0825 50.0301L45.7067 49.0359L45.3109 49.0484C45.093 49.0551 43.8695 49.1468 42.5917 49.2522ZM44.4555 58.7232C44.1073 59.6545 43.4547 62.3685 43.4317 62.9814L43.4106 63.5453L48.4343 68.5706L53.458 73.5961L53.9681 73.5803C54.7314 73.5565 58.4825 72.6069 58.7466 72.3704C58.7896 72.332 55.6403 69.1155 51.7483 65.2226L44.6719 58.1447L44.4555 58.7232ZM37.3396 67.9643C37.1919 68.0221 35.7523 69.3855 34.1407 70.994C30.9572 74.1711 30.8735 74.2856 31.1048 75.1448C31.2423 75.6553 31.8181 76.1917 32.3324 76.2882C33.1543 76.4424 33.2482 76.3729 36.3041 73.3419C37.8946 71.7645 39.2575 70.3237 39.3396 70.1331C39.9131 68.802 38.6632 67.4467 37.3396 67.9643ZM66.9116 71.9586C64.6416 73.3874 61.9059 74.7011 59.514 75.5109C58.405 75.8863 58.1856 75.9963 58.1868 76.1757C58.1886 76.4596 59.1212 82.4684 59.1712 82.5184C59.2522 82.5994 67.316 77.1871 67.429 76.976C67.5395 76.7693 68.0077 71.7069 67.9401 71.4482C67.9233 71.3835 67.4604 71.6132 66.9116 71.9586ZM42.0137 72.8588C41.5434 73.1036 31.453 83.1973 31.2077 83.6684C31.0935 83.8878 31 84.2161 31 84.3982C31 84.9316 31.3801 85.5508 31.8568 85.7941C32.3889 86.0656 32.831 86.0684 33.3414 85.8036C33.5606 85.6897 36.0935 83.2351 38.9701 80.3487C44.6112 74.6884 44.4567 74.8752 44.2793 73.9294C44.0939 72.9403 42.9216 72.3863 42.0137 72.8588ZM46.7416 77.722C46.5643 77.8332 45.1542 79.1994 43.6081 80.7582C41.2261 83.1593 40.7857 83.6524 40.7233 83.9868C40.5 85.1861 41.5507 86.2162 42.6853 85.9101C43.2624 85.7543 48.9924 80.0082 49.1048 79.4724C49.2602 78.7324 48.9337 78.0084 48.2954 77.6783C47.8685 77.4574 47.1305 77.4783 46.7416 77.722Z" fill="#0384F0"></path></svg> 